STARTFONT 2.1
COMMENT /*
COMMENT  * Spleen 6x12 2.1.0
COMMENT  * Copyright (c) 2018-2024, Frederic Cambus
COMMENT  * https://www.cambus.net/
COMMENT  *
COMMENT  * Created:      2020-04-08
COMMENT  * Last Updated: 2024-03-21
COMMENT  *
COMMENT  * Spleen is released under the BSD 2-Clause license.
COMMENT  * See LICENSE file for details.
COMMENT  *
COMMENT  * SPDX-License-Identifier: BSD-2-Clause
COMMENT  */
FONT -misc-spleen-medium-r-normal--12-120-72-72-C-60-ISO10646-1
SIZE 12 72 72
FONTBOUNDINGBOX 6 12 0 -3
STARTPROPERTIES 20
FAMILY_NAME "Spleen"
WEIGHT_NAME "Medium"
FONT_VERSION "2.1.0"
FOUNDRY "misc"
SLANT "R"
SETWIDTH_NAME "Normal"
PIXEL_SIZE 12
POINT_SIZE 120
RESOLUTION_X 72
RESOLUTION_Y 72
SPACING "C"
AVERAGE_WIDTH 60
CHARSET_REGISTRY "ISO10646"
CHARSET_ENCODING "1"
MIN_SPACE 6
FONT_DESCENT 3
FONT_ASCENT 9
COPYRIGHT "Copyright (c) 2018-2024, Frederic Cambus"
DEFAULT_CHAR 32
_GBDFED_INFO "Edited with gbdfed 1.6."
ENDPROPERTIES
CHARS 548
STARTCHAR SPACE
ENCODING 32
SWIDTH 500 0
DWIDTH 6 0
BBX 6 12 0 -3
BITMAP
00
00
00
00
00
00
00
00
00
00
00
00
ENDCHAR
STARTCHAR EXCLAMATION MARK
ENCODING 33
SWIDTH 500 0
DWIDTH 6 0
BBX 6 12 0 -3
BITMAP
00
20
20
20
20
20
20
00
20
00
00
00
ENDCHAR
STARTCHAR QUOTATION MARK
ENCODING 34
SWIDTH 500 0
DWIDTH 6 0
BBX 6 12 0 -3
BITMAP
00
50
50
50
00
00
00
00
00
00
00
00
ENDCHAR
STARTCHAR NUMBER SIGN
ENCODING 35
SWIDTH 500 0
DWIDTH 6 0
BBX 6 12 0 -3
BITMAP
00
00
50
F8
50
50
50
F8
50
00
00
00
ENDCHAR
STARTCHAR DOLLAR SIGN
ENCODING 36
SWIDTH 500 0
DWIDTH 6 0
BBX 6 12 0 -3
BITMAP
20
78
A0
A0
70
28
28
28
F0
20
00
00
ENDCHAR
STARTCHAR PERCENT SIGN
ENCODING 37
SWIDTH 500 0
DWIDTH 6 0
BBX 6 12 0 -3
BITMAP
00
08
48
50
10
20
28
48
40
00
00
00
ENDCHAR
STARTCHAR AMPERSAND
ENCODING 38
SWIDTH 500 0
DWIDTH 6 0
BBX 6 12 0 -3
BITMAP
00
30
48
48
30
60
94
88
74
00
00
00
ENDCHAR
STARTCHAR APOSTROPHE
ENCODING 39
SWIDTH 500 0
DWIDTH 6 0
BBX 6 12 0 -3
BITMAP
00
20
20
20
00
00
00
00
00
00
00
00
ENDCHAR
STARTCHAR LEFT PARENTHESIS
ENCODING 40
SWIDTH 500 0
DWIDTH 6 0
BBX 6 12 0 -3
BITMAP
18
20
40
40
40
40
40
40
20
18
00
00
ENDCHAR
STARTCHAR RIGHT PARENTHESIS
ENCODING 41
SWIDTH 500 0
DWIDTH 6 0
BBX 6 12 0 -3
BITMAP
60
10
08
08
08
08
08
08
10
60
00
00
ENDCHAR
STARTCHAR ASTERISK
ENCODING 42
SWIDTH 500 0
DWIDTH 6 0
BBX 6 12 0 -3
BITMAP
00
00
00
48
30
FC
30
48
00
00
00
00
ENDCHAR
STARTCHAR PLUS SIGN
ENCODING 43
SWIDTH 500 0
DWIDTH 6 0
BBX 6 12 0 -3
BITMAP
00
00
00
20
20
F8
20
20
00
00
00
00
ENDCHAR
STARTCHAR COMMA
ENCODING 44
SWIDTH 500 0
DWIDTH 6 0
BBX 6 12 0 -3
BITMAP
00
00
00
00
00
00
00
20
20
40
00
00
ENDCHAR
STARTCHAR HYPHEN-MINUS
ENCODING 45
SWIDTH 500 0
DWIDTH 6 0
BBX 6 12 0 -3
BITMAP
00
00
00
00
00
F8
00
00
00
00
00
00
ENDCHAR
STARTCHAR FULL STOP
ENCODING 46
SWIDTH 500 0
DWIDTH 6 0
BBX 6 12 0 -3
BITMAP
00
00
00
00
00
00
00
00
20
00
00
00
ENDCHAR
STARTCHAR SOLIDUS
ENCODING 47
SWIDTH 500 0
DWIDTH 6 0
BBX 6 12 0 -3
BITMAP
08
08
10
10
20
20
40
40
80
80
00
00
ENDCHAR
STARTCHAR DIGIT ZERO
ENCODING 48
SWIDTH 500 0
DWIDTH 6 0
BBX 6 12 0 -3
BITMAP
00
70
88
98
A8
C8
88
88
70
00
00
00
ENDCHAR
STARTCHAR DIGIT ONE
ENCODING 49
SWIDTH 500 0
DWIDTH 6 0
BBX 6 12 0 -3
BITMAP
00
20
60
20
20
20
20
20
70
00
00
00
ENDCHAR
STARTCHAR DIGIT TWO
ENCODING 50
SWIDTH 500 0
DWIDTH 6 0
BBX 6 12 0 -3
BITMAP
00
70
88
08
08
70
80
80
F8
00
00
00
ENDCHAR
STARTCHAR DIGIT THREE
ENCODING 51
SWIDTH 500 0
DWIDTH 6 0
BBX 6 12 0 -3
BITMAP
00
70
88
08
30
08
08
88
70
00
00
00
ENDCHAR
STARTCHAR DIGIT FOUR
ENCODING 52
SWIDTH 500 0
DWIDTH 6 0
BBX 6 12 0 -3
BITMAP
00
80
80
90
90
90
F8
10
10
00
00
00
ENDCHAR
STARTCHAR DIGIT FIVE
ENCODING 53
SWIDTH 500 0
DWIDTH 6 0
BBX 6 12 0 -3
BITMAP
00
F8
80
80
F0
08
08
08
F0
00
00
00
ENDCHAR
STARTCHAR DIGIT SIX
ENCODING 54
SWIDTH 500 0
DWIDTH 6 0
BBX 6 12 0 -3
BITMAP
00
70
80
80
F0
88
88
88
70
00
00
00
ENDCHAR
STARTCHAR DIGIT SEVEN
ENCODING 55
SWIDTH 500 0
DWIDTH 6 0
BBX 6 12 0 -3
BITMAP
00
F8
88
08
10
20
20
20
20
00
00
00
ENDCHAR
STARTCHAR DIGIT EIGHT
ENCODING 56
SWIDTH 500 0
DWIDTH 6 0
BBX 6 12 0 -3
BITMAP
00
70
88
88
70
88
88
88
70
00
00
00
ENDCHAR
STARTCHAR DIGIT NINE
ENCODING 57
SWIDTH 500 0
DWIDTH 6 0
BBX 6 12 0 -3
BITMAP
00
70
88
88
88
78
08
08
70
00
00
00
ENDCHAR
STARTCHAR COLON
ENCODING 58
SWIDTH 500 0
DWIDTH 6 0
BBX 6 12 0 -3
BITMAP
00
00
00
00
20
00
00
00
20
00
00
00
ENDCHAR
STARTCHAR SEMICOLON
ENCODING 59
SWIDTH 500 0
DWIDTH 6 0
BBX 6 12 0 -3
BITMAP
00
00
00
00
20
00
00
20
20
40
00
00
ENDCHAR
STARTCHAR LESS-THAN SIGN
ENCODING 60
SWIDTH 500 0
DWIDTH 6 0
BBX 6 12 0 -3
BITMAP
00
08
10
20
40
40
20
10
08
00
00
00
ENDCHAR
STARTCHAR EQUALS SIGN
ENCODING 61
SWIDTH 500 0
DWIDTH 6 0
BBX 6 12 0 -3
BITMAP
00
00
00
00
F8
00
F8
00
00
00
00
00
ENDCHAR
STARTCHAR GREATER-THAN SIGN
ENCODING 62
SWIDTH 500 0
DWIDTH 6 0
BBX 6 12 0 -3
BITMAP
00
40
20
10
08
08
10
20
40
00
00
00
ENDCHAR
STARTCHAR QUESTION MARK
ENCODING 63
SWIDTH 500 0
DWIDTH 6 0
BBX 6 12 0 -3
BITMAP
00
70
88
08
10
20
20
00
20
00
00
00
ENDCHAR
STARTCHAR COMMERCIAL AT
ENCODING 64
SWIDTH 500 0
DWIDTH 6 0
BBX 6 12 0 -3
BITMAP
00
70
88
88
B8
B8
B8
80
78
00
00
00
ENDCHAR
STARTCHAR LATIN CAPITAL LETTER A
ENCODING 65
SWIDTH 500 0
DWIDTH 6 0
BBX 6 12 0 -3
BITMAP
00
70
88
88
88
F8
88
88
88
00
00
00
ENDCHAR
STARTCHAR LATIN CAPITAL LETTER B
ENCODING 66
SWIDTH 500 0
DWIDTH 6 0
BBX 6 12 0 -3
BITMAP
00
F0
88
88
F0
88
88
88
F0
00
00
00
ENDCHAR
STARTCHAR LATIN CAPITAL LETTER C
ENCODING 67
SWIDTH 500 0
DWIDTH 6 0
BBX 6 12 0 -3
BITMAP
00
78
80
80
80
80
80
80
78
00
00
00
ENDCHAR
STARTCHAR LATIN CAPITAL LETTER D
ENCODING 68
SWIDTH 500 0
DWIDTH 6 0
BBX 6 12 0 -3
BITMAP
00
F0
88
88
88
88
88
88
F0
00
00
00
ENDCHAR
STARTCHAR LATIN CAPITAL LETTER E
ENCODING 69
SWIDTH 500 0
DWIDTH 6 0
BBX 6 12 0 -3
BITMAP
00
78
80
80
F0
80
80
80
78
00
00
00
ENDCHAR
STARTCHAR LATIN CAPITAL LETTER F
ENCODING 70
SWIDTH 500 0
DWIDTH 6 0
BBX 6 12 0 -3
BITMAP
00
78
80
80
F0
80
80
80
80
00
00
00
ENDCHAR
STARTCHAR LATIN CAPITAL LETTER G
ENCODING 71
SWIDTH 500 0
DWIDTH 6 0
BBX 6 12 0 -3
BITMAP
00
78
80
80
B8
88
88
88
78
00
00
00
ENDCHAR
STARTCHAR LATIN CAPITAL LETTER H
ENCODING 72
SWIDTH 500 0
DWIDTH 6 0
BBX 6 12 0 -3
BITMAP
00
88
88
88
F8
88
88
88
88
00
00
00
ENDCHAR
STARTCHAR LATIN CAPITAL LETTER I
ENCODING 73
SWIDTH 500 0
DWIDTH 6 0
BBX 6 12 0 -3
BITMAP
00
70
20
20
20
20
20
20
70
00
00
00
ENDCHAR
STARTCHAR LATIN CAPITAL LETTER J
ENCODING 74
SWIDTH 500 0
DWIDTH 6 0
BBX 6 12 0 -3
BITMAP
00
70
20
20
20
20
20
20
C0
00
00
00
ENDCHAR
STARTCHAR LATIN CAPITAL LETTER K
ENCODING 75
SWIDTH 500 0
DWIDTH 6 0
BBX 6 12 0 -3
BITMAP
00
88
88
90
E0
90
88
88
88
00
00
00
ENDCHAR
STARTCHAR LATIN CAPITAL LETTER L
ENCODING 76
SWIDTH 500 0
DWIDTH 6 0
BBX 6 12 0 -3
BITMAP
00
80
80
80
80
80
80
80
78
00
00
00
ENDCHAR
STARTCHAR LATIN CAPITAL LETTER M
ENCODING 77
SWIDTH 500 0
DWIDTH 6 0
BBX 6 12 0 -3
BITMAP
00
88
D8
F8
A8
88
88
88
88
00
00
00
ENDCHAR
STARTCHAR LATIN CAPITAL LETTER N
ENCODING 78
SWIDTH 500 0
DWIDTH 6 0
BBX 6 12 0 -3
BITMAP
00
88
C8
C8
A8
A8
98
98
88
00
00
00
ENDCHAR
STARTCHAR LATIN CAPITAL LETTER O
ENCODING 79
SWIDTH 500 0
DWIDTH 6 0
BBX 6 12 0 -3
BITMAP
00
70
88
88
88
88
88
88
70
00
00
00
ENDCHAR
STARTCHAR LATIN CAPITAL LETTER P
ENCODING 80
SWIDTH 500 0
DWIDTH 6 0
BBX 6 12 0 -3
BITMAP
00
F0
88
88
88
F0
80
80
80
00
00
00
ENDCHAR
STARTCHAR LATIN CAPITAL LETTER Q
ENCODING 81
SWIDTH 500 0
DWIDTH 6 0
BBX 6 12 0 -3
BITMAP
00
70
88
88
88
88
88
88
70
18
00
00
ENDCHAR
STARTCHAR LATIN CAPITAL LETTER R
ENCODING 82
SWIDTH 500 0
DWIDTH 6 0
BBX 6 12 0 -3
BITMAP
00
F0
88
88
88
F0
88
88
88
00
00
00
ENDCHAR
STARTCHAR LATIN CAPITAL LETTER S
ENCODING 83
SWIDTH 500 0
DWIDTH 6 0
BBX 6 12 0 -3
BITMAP
00
78
80
80
70
08
08
08
F0
00
00
00
ENDCHAR
STARTCHAR LATIN CAPITAL LETTER T
ENCODING 84
SWIDTH 500 0
DWIDTH 6 0
BBX 6 12 0 -3
BITMAP
00
F8
20
20
20
20
20
20
20
00
00
00
ENDCHAR
STARTCHAR LATIN CAPITAL LETTER U
ENCODING 85
SWIDTH 500 0
DWIDTH 6 0
BBX 6 12 0 -3
BITMAP
00
88
88
88
88
88
88
88
78
00
00
00
ENDCHAR
STARTCHAR LATIN CAPITAL LETTER V
ENCODING 86
SWIDTH 500 0
DWIDTH 6 0
BBX 6 12 0 -3
BITMAP
00
88
88
88
88
88
88
70
70
00
00
00
ENDCHAR
STARTCHAR LATIN CAPITAL LETTER W
ENCODING 87
SWIDTH 500 0
DWIDTH 6 0
BBX 6 12 0 -3
BITMAP
00
88
88
88
88
A8
F8
D8
88
00
00
00
ENDCHAR
STARTCHAR LATIN CAPITAL LETTER X
ENCODING 88
SWIDTH 500 0
DWIDTH 6 0
BBX 6 12 0 -3
BITMAP
00
88
88
50
20
50
88
88
88
00
00
00
ENDCHAR
STARTCHAR LATIN CAPITAL LETTER Y
ENCODING 89
SWIDTH 500 0
DWIDTH 6 0
BBX 6 12 0 -3
BITMAP
00
88
88
88
88
78
08
08
F0
00
00
00
ENDCHAR
STARTCHAR LATIN CAPITAL LETTER Z
ENCODING 90
SWIDTH 500 0
DWIDTH 6 0
BBX 6 12 0 -3
BITMAP
00
F8
08
10
20
40
80
80
F8
00
00
00
ENDCHAR
STARTCHAR LEFT SQUARE BRACKET
ENCODING 91
SWIDTH 500 0
DWIDTH 6 0
BBX 6 12 0 -3
BITMAP
78
40
40
40
40
40
40
40
40
78
00
00
ENDCHAR
STARTCHAR REVERSE SOLIDUS
ENCODING 92
SWIDTH 500 0
DWIDTH 6 0
BBX 6 12 0 -3
BITMAP
80
80
40
40
20
20
10
10
08
08
00
00
ENDCHAR
STARTCHAR RIGHT SQUARE BRACKET
ENCODING 93
SWIDTH 500 0
DWIDTH 6 0
BBX 6 12 0 -3
BITMAP
78
08
08
08
08
08
08
08
08
78
00
00
ENDCHAR
STARTCHAR CIRCUMFLEX ACCENT
ENCODING 94
SWIDTH 500 0
DWIDTH 6 0
BBX 6 12 0 -3
BITMAP
00
20
50
88
00
00
00
00
00
00
00
00
ENDCHAR
STARTCHAR LOW LINE
ENCODING 95
SWIDTH 500 0
DWIDTH 6 0
BBX 6 12 0 -3
BITMAP
00
00
00
00
00
00
00
00
00
F8
00
00
ENDCHAR
STARTCHAR GRAVE ACCENT
ENCODING 96
SWIDTH 500 0
DWIDTH 6 0
BBX 6 12 0 -3
BITMAP
00
40
20
10
00
00
00
00
00
00
00
00
ENDCHAR
STARTCHAR LATIN SMALL LETTER A
ENCODING 97
SWIDTH 500 0
DWIDTH 6 0
BBX 6 12 0 -3
BITMAP
00
00
00
70
08
78
88
88
78
00
00
00
ENDCHAR
STARTCHAR LATIN SMALL LETTER B
ENCODING 98
SWIDTH 500 0
DWIDTH 6 0
BBX 6 12 0 -3
BITMAP
00
80
80
F0
88
88
88
88
F0
00
00
00
ENDCHAR
STARTCHAR LATIN SMALL LETTER C
ENCODING 99
SWIDTH 500 0
DWIDTH 6 0
BBX 6 12 0 -3
BITMAP
00
00
00
78
80
80
80
80
78
00
00
00
ENDCHAR
STARTCHAR LATIN SMALL LETTER D
ENCODING 100
SWIDTH 500 0
DWIDTH 6 0
BBX 6 12 0 -3
BITMAP
00
08
08
78
88
88
88
88
78
00
00
00
ENDCHAR
STARTCHAR LATIN SMALL LETTER E
ENCODING 101
SWIDTH 500 0
DWIDTH 6 0
BBX 6 12 0 -3
BITMAP
00
00
00
78
88
88
F8
80
78
00
00
00
ENDCHAR
STARTCHAR LATIN SMALL LETTER F
ENCODING 102
SWIDTH 500 0
DWIDTH 6 0
BBX 6 12 0 -3
BITMAP
00
38
40
40
F0
40
40
40
40
00
00
00
ENDCHAR
STARTCHAR LATIN SMALL LETTER G
ENCODING 103
SWIDTH 500 0
DWIDTH 6 0
BBX 6 12 0 -3
BITMAP
00
00
00
78
88
88
88
88
70
08
F0
00
ENDCHAR
STARTCHAR LATIN SMALL LETTER H
ENCODING 104
SWIDTH 500 0
DWIDTH 6 0
BBX 6 12 0 -3
BITMAP
00
80
80
F0
88
88
88
88
88
00
00
00
ENDCHAR
STARTCHAR LATIN SMALL LETTER I
ENCODING 105
SWIDTH 500 0
DWIDTH 6 0
BBX 6 12 0 -3
BITMAP
00
20
00
60
20
20
20
20
30
00
00
00
ENDCHAR
STARTCHAR LATIN SMALL LETTER J
ENCODING 106
SWIDTH 500 0
DWIDTH 6 0
BBX 6 12 0 -3
BITMAP
00
10
00
10
10
10
10
10
10
60
00
00
ENDCHAR
STARTCHAR LATIN SMALL LETTER K
ENCODING 107
SWIDTH 500 0
DWIDTH 6 0
BBX 6 12 0 -3
BITMAP
00
80
80
90
A0
C0
A0
90
88
00
00
00
ENDCHAR
STARTCHAR LATIN SMALL LETTER L
ENCODING 108
SWIDTH 500 0
DWIDTH 6 0
BBX 6 12 0 -3
BITMAP
00
40
40
40
40
40
40
40
30
00
00
00
ENDCHAR
STARTCHAR LATIN SMALL LETTER M
ENCODING 109
SWIDTH 500 0
DWIDTH 6 0
BBX 6 12 0 -3
BITMAP
00
00
00
F0
A8
A8
A8
88
88
00
00
00
ENDCHAR
STARTCHAR LATIN SMALL LETTER N
ENCODING 110
SWIDTH 500 0
DWIDTH 6 0
BBX 6 12 0 -3
BITMAP
00
00
00
F0
88
88
88
88
88
00
00
00
ENDCHAR
STARTCHAR LATIN SMALL LETTER O
ENCODING 111
SWIDTH 500 0
DWIDTH 6 0
BBX 6 12 0 -3
BITMAP
00
00
00
70
88
88
88
88
70
00
00
00
ENDCHAR
STARTCHAR LATIN SMALL LETTER P
ENCODING 112
SWIDTH 500 0
DWIDTH 6 0
BBX 6 12 0 -3
BITMAP
00
00
00
F0
88
88
88
88
F0
80
80
80
ENDCHAR
STARTCHAR LATIN SMALL LETTER Q
ENCODING 113
SWIDTH 500 0
DWIDTH 6 0
BBX 6 12 0 -3
BITMAP
00
00
00
78
88
88
88
88
78
08
08
08
ENDCHAR
STARTCHAR LATIN SMALL LETTER R
ENCODING 114
SWIDTH 500 0
DWIDTH 6 0
BBX 6 12 0 -3
BITMAP
00
00
00
78
88
80
80
80
80
00
00
00
ENDCHAR
STARTCHAR LATIN SMALL LETTER S
ENCODING 115
SWIDTH 500 0
DWIDTH 6 0
BBX 6 12 0 -3
BITMAP
00
00
00
78
80
70
08
08
F0
00
00
00
ENDCHAR
STARTCHAR LATIN SMALL LETTER T
ENCODING 116
SWIDTH 500 0
DWIDTH 6 0
BBX 6 12 0 -3
BITMAP
00
40
40
E0
40
40
40
40
30
00
00
00
ENDCHAR
STARTCHAR LATIN SMALL LETTER U
ENCODING 117
SWIDTH 500 0
DWIDTH 6 0
BBX 6 12 0 -3
BITMAP
00
00
00
88
88
88
88
88
78
00
00
00
ENDCHAR
STARTCHAR LATIN SMALL LETTER V
ENCODING 118
SWIDTH 500 0
DWIDTH 6 0
BBX 6 12 0 -3
BITMAP
00
00
00
88
88
88
88
50
20
00
00
00
ENDCHAR
STARTCHAR LATIN SMALL LETTER W
ENCODING 119
SWIDTH 500 0
DWIDTH 6 0
BBX 6 12 0 -3
BITMAP
00
00
00
88
88
A8
F8
D8
88
00
00
00
ENDCHAR
STARTCHAR LATIN SMALL LETTER X
ENCODING 120
SWIDTH 500 0
DWIDTH 6 0
BBX 6 12 0 -3
BITMAP
00
00
00
88
88
70
70
88
88
00
00
00
ENDCHAR
STARTCHAR LATIN SMALL LETTER Y
ENCODING 121
SWIDTH 500 0
DWIDTH 6 0
BBX 6 12 0 -3
BITMAP
00
00
00
88
88
88
88
88
78
08
08
F0
ENDCHAR
STARTCHAR LATIN SMALL LETTER Z
ENCODING 122
SWIDTH 500 0
DWIDTH 6 0
BBX 6 12 0 -3
BITMAP
00
00
00
F8
08
10
20
40
F8
00
00
00
ENDCHAR
STARTCHAR LEFT CURLY BRACKET
ENCODING 123
SWIDTH 500 0
DWIDTH 6 0
BBX 6 12 0 -3
BITMAP
18
20
20
20
C0
C0
20
20
20
18
00
00
ENDCHAR
STARTCHAR VERTICAL LINE
ENCODING 124
SWIDTH 500 0
DWIDTH 6 0
BBX 6 12 0 -3
BITMAP
20
20
20
20
20
20
20
20
20
20
00
00
ENDCHAR
STARTCHAR RIGHT CURLY BRACKET
ENCODING 125
SWIDTH 500 0
DWIDTH 6 0
BBX 6 12 0 -3
BITMAP
60
10
10
10
0C
0C
10
10
10
60
00
00
ENDCHAR
STARTCHAR TILDE
ENCODING 126
SWIDTH 500 0
DWIDTH 6 0
BBX 6 12 0 -3
BITMAP
00
00
00
00
00
48
B0
00
00
00
00
00
ENDCHAR
STARTCHAR <control>
ENCODING 127
SWIDTH 500 0
DWIDTH 6 0
BBX 6 12 0 -3
BITMAP
00
00
00
00
00
00
00
00
00
00
00
00
ENDCHAR
STARTCHAR NO-BREAK SPACE
ENCODING 160
SWIDTH 500 0
DWIDTH 6 0
BBX 6 12 0 -3
BITMAP
00
00
00
00
00
00
00
00
00
00
00
00
ENDCHAR
STARTCHAR INVERTED EXCLAMATION MARK
ENCODING 161
SWIDTH 500 0
DWIDTH 6 0
BBX 6 12 0 -3
BITMAP
00
20
00
20
20
20
20
20
20
00
00
00
ENDCHAR
STARTCHAR CENT SIGN
ENCODING 162
SWIDTH 500 0
DWIDTH 6 0
BBX 6 12 0 -3
BITMAP
00
00
20
78
A0
A0
A0
A0
78
20
00
00
ENDCHAR
STARTCHAR POUND SIGN
ENCODING 163
SWIDTH 500 0
DWIDTH 6 0
BBX 6 12 0 -3
BITMAP
00
30
48
40
40
F0
40
80
F8
00
00
00
ENDCHAR
STARTCHAR CURRENCY SIGN
ENCODING 164
SWIDTH 500 0
DWIDTH 6 0
BBX 6 12 0 -3
BITMAP
00
00
00
48
30
48
48
30
48
00
00
00
ENDCHAR
STARTCHAR YEN SIGN
ENCODING 165
SWIDTH 500 0
DWIDTH 6 0
BBX 6 12 0 -3
BITMAP
00
88
50
20
70
20
70
20
20
00
00
00
ENDCHAR
STARTCHAR BROKEN BAR
ENCODING 166
SWIDTH 500 0
DWIDTH 6 0
BBX 6 12 0 -3
BITMAP
20
20
20
20
00
00
20
20
20
20
00
00
ENDCHAR
STARTCHAR SECTION SIGN
ENCODING 167
SWIDTH 500 0
DWIDTH 6 0
BBX 6 12 0 -3
BITMAP
00
30
48
20
30
48
48
48
30
10
48
30
ENDCHAR
STARTCHAR DIAERESIS
ENCODING 168
SWIDTH 500 0
DWIDTH 6 0
BBX 6 12 0 -3
BITMAP
00
50
00
00
00
00
00
00
00
00
00
00
ENDCHAR
STARTCHAR COPYRIGHT SIGN
ENCODING 169
SWIDTH 500 0
DWIDTH 6 0
BBX 6 12 0 -3
BITMAP
00
78
84
94
A4
A4
B4
84
78
00
00
00
ENDCHAR
STARTCHAR FEMININE ORDINAL INDICATOR
ENCODING 170
SWIDTH 500 0
DWIDTH 6 0
BBX 6 12 0 -3
BITMAP
00
30
08
38
48
38
00
78
00
00
00
00
ENDCHAR
STARTCHAR LEFT-POINTING DOUBLE ANGLE QUOTATION MARK
ENCODING 171
SWIDTH 500 0
DWIDTH 6 0
BBX 6 12 0 -3
BITMAP
00
00
00
24
48
90
90
48
24
00
00
00
ENDCHAR
STARTCHAR NOT SIGN
ENCODING 172
SWIDTH 500 0
DWIDTH 6 0
BBX 6 12 0 -3
BITMAP
00
00
00
00
00
F8
08
08
00
00
00
00
ENDCHAR
STARTCHAR SOFT HYPHEN
ENCODING 173
SWIDTH 500 0
DWIDTH 6 0
BBX 6 12 0 -3
BITMAP
00
00
00
00
00
70
00
00
00
00
00
00
ENDCHAR
STARTCHAR REGISTERED SIGN
ENCODING 174
SWIDTH 500 0
DWIDTH 6 0
BBX 6 12 0 -3
BITMAP
00
78
84
B4
AC
B4
AC
84
78
00
00
00
ENDCHAR
STARTCHAR MACRON
ENCODING 175
SWIDTH 500 0
DWIDTH 6 0
BBX 6 12 0 -3
BITMAP
00
70
00
00
00
00
00
00
00
00
00
00
ENDCHAR
STARTCHAR DEGREE SIGN
ENCODING 176
SWIDTH 500 0
DWIDTH 6 0
BBX 6 12 0 -3
BITMAP
00
30
48
48
30
00
00
00
00
00
00
00
ENDCHAR
STARTCHAR PLUS-MINUS SIGN
ENCODING 177
SWIDTH 500 0
DWIDTH 6 0
BBX 6 12 0 -3
BITMAP
00
00
20
20
F8
20
20
00
F8
00
00
00
ENDCHAR
STARTCHAR SUPERSCRIPT TWO
ENCODING 178
SWIDTH 500 0
DWIDTH 6 0
BBX 6 12 0 -3
BITMAP
00
30
48
08
10
20
78
00
00
00
00
00
ENDCHAR
STARTCHAR SUPERSCRIPT THREE
ENCODING 179
SWIDTH 500 0
DWIDTH 6 0
BBX 6 12 0 -3
BITMAP
00
30
48
10
08
48
30
00
00
00
00
00
ENDCHAR
STARTCHAR ACUTE ACCENT
ENCODING 180
SWIDTH 500 0
DWIDTH 6 0
BBX 6 12 0 -3
BITMAP
00
10
20
40
00
00
00
00
00
00
00
00
ENDCHAR
STARTCHAR MICRO SIGN
ENCODING 181
SWIDTH 500 0
DWIDTH 6 0
BBX 6 12 0 -3
BITMAP
00
00
00
90
90
90
90
90
E8
80
80
00
ENDCHAR
STARTCHAR PILCROW SIGN
ENCODING 182
SWIDTH 500 0
DWIDTH 6 0
BBX 6 12 0 -3
BITMAP
00
78
A8
A8
68
28
28
28
28
00
00
00
ENDCHAR
STARTCHAR MIDDLE DOT
ENCODING 183
SWIDTH 500 0
DWIDTH 6 0
BBX 6 12 0 -3
BITMAP
00
00
00
00
00
20
00
00
00
00
00
00
ENDCHAR
STARTCHAR CEDILLA
ENCODING 184
SWIDTH 500 0
DWIDTH 6 0
BBX 6 12 0 -3
BITMAP
00
00
00
00
00
00
00
00
00
20
20
40
ENDCHAR
STARTCHAR SUPERSCRIPT ONE
ENCODING 185
SWIDTH 500 0
DWIDTH 6 0
BBX 6 12 0 -3
BITMAP
00
20
60
20
20
20
70
00
00
00
00
00
ENDCHAR
STARTCHAR MASCULINE ORDINAL INDICATOR
ENCODING 186
SWIDTH 500 0
DWIDTH 6 0
BBX 6 12 0 -3
BITMAP
00
30
48
48
48
30
00
78
00
00
00
00
ENDCHAR
STARTCHAR RIGHT-POINTING DOUBLE ANGLE QUOTATION MARK
ENCODING 187
SWIDTH 500 0
DWIDTH 6 0
BBX 6 12 0 -3
BITMAP
00
00
00
90
48
24
24
48
90
00
00
00
ENDCHAR
STARTCHAR VULGAR FRACTION ONE QUARTER
ENCODING 188
SWIDTH 500 0
DWIDTH 6 0
BBX 6 12 0 -3
BITMAP
40
C0
40
44
48
10
20
60
A8
3C
08
08
ENDCHAR
STARTCHAR VULGAR FRACTION ONE HALF
ENCODING 189
SWIDTH 500 0
DWIDTH 6 0
BBX 6 12 0 -3
BITMAP
40
C0
40
44
48
10
20
58
A4
08
10
3C
ENDCHAR
STARTCHAR VULGAR FRACTION THREE QUARTERS
ENCODING 190
SWIDTH 500 0
DWIDTH 6 0
BBX 6 12 0 -3
BITMAP
60
90
20
14
98
70
20
60
A8
3C
08
08
ENDCHAR
STARTCHAR INVERTED QUESTION MARK
ENCODING 191
SWIDTH 500 0
DWIDTH 6 0
BBX 6 12 0 -3
BITMAP
00
20
00
20
20
40
80
88
70
00
00
00
ENDCHAR
STARTCHAR LATIN CAPITAL LETTER A WITH GRAVE
ENCODING 192
SWIDTH 500 0
DWIDTH 6 0
BBX 6 12 0 -3
BITMAP
40
20
70
88
88
F8
88
88
88
00
00
00
ENDCHAR
STARTCHAR LATIN CAPITAL LETTER A WITH ACUTE
ENCODING 193
SWIDTH 500 0
DWIDTH 6 0
BBX 6 12 0 -3
BITMAP
10
20
70
88
88
F8
88
88
88
00
00
00
ENDCHAR
STARTCHAR LATIN CAPITAL LETTER A WITH CIRCUMFLEX
ENCODING 194
SWIDTH 500 0
DWIDTH 6 0
BBX 6 12 0 -3
BITMAP
20
50
70
88
88
F8
88
88
88
00
00
00
ENDCHAR
STARTCHAR LATIN CAPITAL LETTER A WITH TILDE
ENCODING 195
SWIDTH 500 0
DWIDTH 6 0
BBX 6 12 0 -3
BITMAP
48
B0
70
88
88
F8
88
88
88
00
00
00
ENDCHAR
STARTCHAR LATIN CAPITAL LETTER A WITH DIAERESIS
ENCODING 196
SWIDTH 500 0
DWIDTH 6 0
BBX 6 12 0 -3
BITMAP
50
00
70
88
88
F8
88
88
88
00
00
00
ENDCHAR
STARTCHAR LATIN CAPITAL LETTER A WITH RING ABOVE
ENCODING 197
SWIDTH 500 0
DWIDTH 6 0
BBX 6 12 0 -3
BITMAP
20
50
70
88
88
F8
88
88
88
00
00
00
ENDCHAR
STARTCHAR LATIN CAPITAL LETTER AE
ENCODING 198
SWIDTH 500 0
DWIDTH 6 0
BBX 6 12 0 -3
BITMAP
00
78
A0
A0
A0
F8
A0
A0
B8
00
00
00
ENDCHAR
STARTCHAR LATIN CAPITAL LETTER C WITH CEDILLA
ENCODING 199
SWIDTH 500 0
DWIDTH 6 0
BBX 6 12 0 -3
BITMAP
00
78
80
80
80
80
80
80
78
20
20
40
ENDCHAR
STARTCHAR LATIN CAPITAL LETTER E WITH GRAVE
ENCODING 200
SWIDTH 500 0
DWIDTH 6 0
BBX 6 12 0 -3
BITMAP
40
20
78
80
80
F0
80
80
78
00
00
00
ENDCHAR
STARTCHAR LATIN CAPITAL LETTER E WITH ACUTE
ENCODING 201
SWIDTH 500 0
DWIDTH 6 0
BBX 6 12 0 -3
BITMAP
10
20
78
80
80
F0
80
80
78
00
00
00
ENDCHAR
STARTCHAR LATIN CAPITAL LETTER E WITH CIRCUMFLEX
ENCODING 202
SWIDTH 500 0
DWIDTH 6 0
BBX 6 12 0 -3
BITMAP
20
50
78
80
80
F0
80
80
78
00
00
00
ENDCHAR
STARTCHAR LATIN CAPITAL LETTER E WITH DIAERESIS
ENCODING 203
SWIDTH 500 0
DWIDTH 6 0
BBX 6 12 0 -3
BITMAP
50
00
78
80
80
F0
80
80
78
00
00
00
ENDCHAR
STARTCHAR LATIN CAPITAL LETTER I WITH GRAVE
ENCODING 204
SWIDTH 500 0
DWIDTH 6 0
BBX 6 12 0 -3
BITMAP
40
20
70
20
20
20
20
20
70
00
00
00
ENDCHAR
STARTCHAR LATIN CAPITAL LETTER I WITH ACUTE
ENCODING 205
SWIDTH 500 0
DWIDTH 6 0
BBX 6 12 0 -3
BITMAP
10
20
70
20
20
20
20
20
70
00
00
00
ENDCHAR
STARTCHAR LATIN CAPITAL LETTER I WITH CIRCUMFLEX
ENCODING 206
SWIDTH 500 0
DWIDTH 6 0
BBX 6 12 0 -3
BITMAP
20
50
70
20
20
20
20
20
70
00
00
00
ENDCHAR
STARTCHAR LATIN CAPITAL LETTER I WITH DIAERESIS
ENCODING 207
SWIDTH 500 0
DWIDTH 6 0
BBX 6 12 0 -3
BITMAP
50
00
70
20
20
20
20
20
70
00
00
00
ENDCHAR
STARTCHAR LATIN CAPITAL LETTER ETH
ENCODING 208
SWIDTH 500 0
DWIDTH 6 0
BBX 6 12 0 -3
BITMAP
00
70
48
48
E8
48
48
48
70
00
00
00
ENDCHAR
STARTCHAR LATIN CAPITAL LETTER N WITH TILDE
ENCODING 209
SWIDTH 500 0
DWIDTH 6 0
BBX 6 12 0 -3
BITMAP
48
B0
88
C8
C8
A8
A8
98
98
00
00
00
ENDCHAR
STARTCHAR LATIN CAPITAL LETTER O WITH GRAVE
ENCODING 210
SWIDTH 500 0
DWIDTH 6 0
BBX 6 12 0 -3
BITMAP
40
20
70
88
88
88
88
88
70
00
00
00
ENDCHAR
STARTCHAR LATIN CAPITAL LETTER O WITH ACUTE
ENCODING 211
SWIDTH 500 0
DWIDTH 6 0
BBX 6 12 0 -3
BITMAP
10
20
70
88
88
88
88
88
70
00
00
00
ENDCHAR
STARTCHAR LATIN CAPITAL LETTER O WITH CIRCUMFLEX
ENCODING 212
SWIDTH 500 0
DWIDTH 6 0
BBX 6 12 0 -3
BITMAP
20
50
70
88
88
88
88
88
70
00
00
00
ENDCHAR
STARTCHAR LATIN CAPITAL LETTER O WITH TILDE
ENCODING 213
SWIDTH 500 0
DWIDTH 6 0
BBX 6 12 0 -3
BITMAP
48
B0
70
88
88
88
88
88
70
00
00
00
ENDCHAR
STARTCHAR LATIN CAPITAL LETTER O WITH DIAERESIS
ENCODING 214
SWIDTH 500 0
DWIDTH 6 0
BBX 6 12 0 -3
BITMAP
50
00
70
88
88
88
88
88
70
00
00
00
ENDCHAR
STARTCHAR MULTIPLICATION SIGN
ENCODING 215
SWIDTH 500 0
DWIDTH 6 0
BBX 6 12 0 -3
BITMAP
00
00
00
48
30
30
48
00
00
00
00
00
ENDCHAR
STARTCHAR LATIN CAPITAL LETTER O WITH STROKE
ENCODING 216
SWIDTH 500 0
DWIDTH 6 0
BBX 6 12 0 -3
BITMAP
08
70
88
98
A8
A8
C8
88
70
80
00
00
ENDCHAR
STARTCHAR LATIN CAPITAL LETTER U WITH GRAVE
ENCODING 217
SWIDTH 500 0
DWIDTH 6 0
BBX 6 12 0 -3
BITMAP
40
20
88
88
88
88
88
88
78
00
00
00
ENDCHAR
STARTCHAR LATIN CAPITAL LETTER U WITH ACUTE
ENCODING 218
SWIDTH 500 0
DWIDTH 6 0
BBX 6 12 0 -3
BITMAP
10
20
88
88
88
88
88
88
78
00
00
00
ENDCHAR
STARTCHAR LATIN CAPITAL LETTER U WITH CIRCUMFLEX
ENCODING 219
SWIDTH 500 0
DWIDTH 6 0
BBX 6 12 0 -3
BITMAP
20
50
88
88
88
88
88
88
78
00
00
00
ENDCHAR
STARTCHAR LATIN CAPITAL LETTER U WITH DIAERESIS
ENCODING 220
SWIDTH 500 0
DWIDTH 6 0
BBX 6 12 0 -3
BITMAP
50
00
88
88
88
88
88
88
78
00
00
00
ENDCHAR
STARTCHAR LATIN CAPITAL LETTER Y WITH ACUTE
ENCODING 221
SWIDTH 500 0
DWIDTH 6 0
BBX 6 12 0 -3
BITMAP
10
20
88
88
88
78
08
08
F0
00
00
00
ENDCHAR
STARTCHAR LATIN CAPITAL LETTER THORN
ENCODING 222
SWIDTH 500 0
DWIDTH 6 0
BBX 6 12 0 -3
BITMAP
00
00
80
F0
88
88
88
88
F0
80
00
00
ENDCHAR
STARTCHAR LATIN SMALL LETTER SHARP S
ENCODING 223
SWIDTH 500 0
DWIDTH 6 0
BBX 6 12 0 -3
BITMAP
00
60
90
90
A0
90
88
C8
B0
00
00
00
ENDCHAR
STARTCHAR LATIN SMALL LETTER A WITH GRAVE
ENCODING 224
SWIDTH 500 0
DWIDTH 6 0
BBX 6 12 0 -3
BITMAP
20
10
00
70
08
78
88
88
78
00
00
00
ENDCHAR
STARTCHAR LATIN SMALL LETTER A WITH ACUTE
ENCODING 225
SWIDTH 500 0
DWIDTH 6 0
BBX 6 12 0 -3
BITMAP
10
20
00
70
08
78
88
88
78
00
00
00
ENDCHAR
STARTCHAR LATIN SMALL LETTER A WITH CIRCUMFLEX
ENCODING 226
SWIDTH 500 0
DWIDTH 6 0
BBX 6 12 0 -3
BITMAP
20
50
00
70
08
78
88
88
78
00
00
00
ENDCHAR
STARTCHAR LATIN SMALL LETTER A WITH TILDE
ENCODING 227
SWIDTH 500 0
DWIDTH 6 0
BBX 6 12 0 -3
BITMAP
48
B0
00
70
08
78
88
88
78
00
00
00
ENDCHAR
STARTCHAR LATIN SMALL LETTER A WITH DIAERESIS
ENCODING 228
SWIDTH 500 0
DWIDTH 6 0
BBX 6 12 0 -3
BITMAP
00
50
00
70
08
78
88
88
78
00
00
00
ENDCHAR
STARTCHAR LATIN SMALL LETTER A WITH RING ABOVE
ENCODING 229
SWIDTH 500 0
DWIDTH 6 0
BBX 6 12 0 -3
BITMAP
20
50
20
70
08
78
88
88
78
00
00
00
ENDCHAR
STARTCHAR LATIN SMALL LETTER AE
ENCODING 230
SWIDTH 500 0
DWIDTH 6 0
BBX 6 12 0 -3
BITMAP
00
00
00
D8
28
68
B8
A0
78
00
00
00
ENDCHAR
STARTCHAR LATIN SMALL LETTER C WITH CEDILLA
ENCODING 231
SWIDTH 500 0
DWIDTH 6 0
BBX 6 12 0 -3
BITMAP
00
00
00
78
80
80
80
80
78
20
20
40
ENDCHAR
STARTCHAR LATIN SMALL LETTER E WITH GRAVE
ENCODING 232
SWIDTH 500 0
DWIDTH 6 0
BBX 6 12 0 -3
BITMAP
20
10
00
78
88
88
F8
80
78
00
00
00
ENDCHAR
STARTCHAR LATIN SMALL LETTER E WITH ACUTE
ENCODING 233
SWIDTH 500 0
DWIDTH 6 0
BBX 6 12 0 -3
BITMAP
10
20
00
78
88
88
F8
80
78
00
00
00
ENDCHAR
STARTCHAR LATIN SMALL LETTER E WITH CIRCUMFLEX
ENCODING 234
SWIDTH 500 0
DWIDTH 6 0
BBX 6 12 0 -3
BITMAP
20
50
00
78
88
88
F8
80
78
00
00
00
ENDCHAR
STARTCHAR LATIN SMALL LETTER E WITH DIAERESIS
ENCODING 235
SWIDTH 500 0
DWIDTH 6 0
BBX 6 12 0 -3
BITMAP
00
50
00
78
88
88
F8
80
78
00
00
00
ENDCHAR
STARTCHAR LATIN SMALL LETTER I WITH GRAVE
ENCODING 236
SWIDTH 500 0
DWIDTH 6 0
BBX 6 12 0 -3
BITMAP
20
10
00
60
20
20
20
20
30
00
00
00
ENDCHAR
STARTCHAR LATIN SMALL LETTER I WITH ACUTE
ENCODING 237
SWIDTH 500 0
DWIDTH 6 0
BBX 6 12 0 -3
BITMAP
10
20
00
60
20
20
20
20
30
00
00
00
ENDCHAR
STARTCHAR LATIN SMALL LETTER I WITH CIRCUMFLEX
ENCODING 238
SWIDTH 500 0
DWIDTH 6 0
BBX 6 12 0 -3
BITMAP
20
50
00
60
20
20
20
20
30
00
00
00
ENDCHAR
STARTCHAR LATIN SMALL LETTER I WITH DIAERESIS
ENCODING 239
SWIDTH 500 0
DWIDTH 6 0
BBX 6 12 0 -3
BITMAP
00
50
00
60
20
20
20
20
30
00
00
00
ENDCHAR
STARTCHAR LATIN SMALL LETTER ETH
ENCODING 240
SWIDTH 500 0
DWIDTH 6 0
BBX 6 12 0 -3
BITMAP
A0
40
A0
70
88
88
88
88
70
00
00
00
ENDCHAR
STARTCHAR LATIN SMALL LETTER N WITH TILDE
ENCODING 241
SWIDTH 500 0
DWIDTH 6 0
BBX 6 12 0 -3
BITMAP
48
B0
00
F0
88
88
88
88
88
00
00
00
ENDCHAR
STARTCHAR LATIN SMALL LETTER O WITH GRAVE
ENCODING 242
SWIDTH 500 0
DWIDTH 6 0
BBX 6 12 0 -3
BITMAP
20
10
00
70
88
88
88
88
70
00
00
00
ENDCHAR
STARTCHAR LATIN SMALL LETTER O WITH ACUTE
ENCODING 243
SWIDTH 500 0
DWIDTH 6 0
BBX 6 12 0 -3
BITMAP
10
20
00
70
88
88
88
88
70
00
00
00
ENDCHAR
STARTCHAR LATIN SMALL LETTER O WITH CIRCUMFLEX
ENCODING 244
SWIDTH 500 0
DWIDTH 6 0
BBX 6 12 0 -3
BITMAP
20
50
00
70
88
88
88
88
70
00
00
00
ENDCHAR
STARTCHAR LATIN SMALL LETTER O WITH TILDE
ENCODING 245
SWIDTH 500 0
DWIDTH 6 0
BBX 6 12 0 -3
BITMAP
48
B0
00
70
88
88
88
88
70
00
00
00
ENDCHAR
STARTCHAR LATIN SMALL LETTER O WITH DIAERESIS
ENCODING 246
SWIDTH 500 0
DWIDTH 6 0
BBX 6 12 0 -3
BITMAP
00
50
00
70
88
88
88
88
70
00
00
00
ENDCHAR
STARTCHAR DIVISION SIGN
ENCODING 247
SWIDTH 500 0
DWIDTH 6 0
BBX 6 12 0 -3
BITMAP
00
00
00
20
00
F8
00
20
00
00
00
00
ENDCHAR
STARTCHAR LATIN SMALL LETTER O WITH STROKE
ENCODING 248
SWIDTH 500 0
DWIDTH 6 0
BBX 6 12 0 -3
BITMAP
00
00
08
70
98
A8
C8
88
70
80
00
00
ENDCHAR
STARTCHAR LATIN SMALL LETTER U WITH GRAVE
ENCODING 249
SWIDTH 500 0
DWIDTH 6 0
BBX 6 12 0 -3
BITMAP
20
10
00
88
88
88
88
88
78
00
00
00
ENDCHAR
STARTCHAR LATIN SMALL LETTER U WITH ACUTE
ENCODING 250
SWIDTH 500 0
DWIDTH 6 0
BBX 6 12 0 -3
BITMAP
10
20
00
88
88
88
88
88
78
00
00
00
ENDCHAR
STARTCHAR LATIN SMALL LETTER U WITH CIRCUMFLEX
ENCODING 251
SWIDTH 500 0
DWIDTH 6 0
BBX 6 12 0 -3
BITMAP
20
50
00
88
88
88
88
88
78
00
00
00
ENDCHAR
STARTCHAR LATIN SMALL LETTER U WITH DIAERESIS
ENCODING 252
SWIDTH 500 0
DWIDTH 6 0
BBX 6 12 0 -3
BITMAP
00
50
00
88
88
88
88
88
78
00
00
00
ENDCHAR
STARTCHAR LATIN SMALL LETTER Y WITH ACUTE
ENCODING 253
SWIDTH 500 0
DWIDTH 6 0
BBX 6 12 0 -3
BITMAP
10
20
00
88
88
88
88
88
78
08
08
F0
ENDCHAR
STARTCHAR LATIN SMALL LETTER THORN
ENCODING 254
SWIDTH 500 0
DWIDTH 6 0
BBX 6 12 0 -3
BITMAP
00
80
80
F0
88
88
88
88
F0
80
80
00
ENDCHAR
STARTCHAR LATIN SMALL LETTER Y WITH DIAERESIS
ENCODING 255
SWIDTH 500 0
DWIDTH 6 0
BBX 6 12 0 -3
BITMAP
00
50
00
88
88
88
88
88
78
08
08
F0
ENDCHAR
STARTCHAR COMBINING BREVE
ENCODING 774
SWIDTH 500 0
DWIDTH 6 0
BBX 6 12 0 -3
BITMAP
50
20
00
00
00
00
00
00
00
00
00
00
ENDCHAR
STARTCHAR COMBINING DIAERESIS
ENCODING 776
SWIDTH 500 0
DWIDTH 6 0
BBX 6 12 0 -3
BITMAP
50
00
00
00
00
00
00
00
00
00
00
00
ENDCHAR
STARTCHAR CYRILLIC CAPITAL LETTER IO
ENCODING 1025
SWIDTH 500 0
DWIDTH 6 0
BBX 6 12 0 -3
BITMAP
50
00
78
80
80
F0
80
80
78
00
00
00
ENDCHAR
STARTCHAR CYRILLIC CAPITAL LETTER BYELORUSSIAN-UKRAINIAN I
ENCODING 1030
SWIDTH 500 0
DWIDTH 6 0
BBX 6 12 0 -3
BITMAP
00
70
20
20
20
20
20
20
70
00
00
00
ENDCHAR
STARTCHAR CYRILLIC CAPITAL LETTER YI
ENCODING 1031
SWIDTH 500 0
DWIDTH 6 0
BBX 6 12 0 -3
BITMAP
50
00
70
20
20
20
20
20
70
00
00
00
ENDCHAR
STARTCHAR CYRILLIC CAPITAL LETTER SHORT U
ENCODING 1038
SWIDTH 500 0
DWIDTH 6 0
BBX 6 12 0 -3
BITMAP
50
20
88
88
88
78
08
08
F0
00
00
00
ENDCHAR
STARTCHAR CYRILLIC CAPITAL LETTER A
ENCODING 1040
SWIDTH 500 0
DWIDTH 6 0
BBX 6 12 0 -3
BITMAP
00
70
88
88
88
F8
88
88
88
00
00
00
ENDCHAR
STARTCHAR CYRILLIC CAPITAL LETTER BE
ENCODING 1041
SWIDTH 500 0
DWIDTH 6 0
BBX 6 12 0 -3
BITMAP
00
F0
80
80
F0
88
88
88
F0
00
00
00
ENDCHAR
STARTCHAR CYRILLIC CAPITAL LETTER VE
ENCODING 1042
SWIDTH 500 0
DWIDTH 6 0
BBX 6 12 0 -3
BITMAP
00
F0
88
88
F0
88
88
88
F0
00
00
00
ENDCHAR
STARTCHAR CYRILLIC CAPITAL LETTER GHE
ENCODING 1043
SWIDTH 500 0
DWIDTH 6 0
BBX 6 12 0 -3
BITMAP
00
78
80
80
80
80
80
80
80
00
00
00
ENDCHAR
STARTCHAR CYRILLIC CAPITAL LETTER DE
ENCODING 1044
SWIDTH 500 0
DWIDTH 6 0
BBX 6 12 0 -3
BITMAP
00
30
50
50
50
50
50
F8
88
00
00
00
ENDCHAR
STARTCHAR CYRILLIC CAPITAL LETTER IE
ENCODING 1045
SWIDTH 500 0
DWIDTH 6 0
BBX 6 12 0 -3
BITMAP
00
78
80
80
F0
80
80
80
78
00
00
00
ENDCHAR
STARTCHAR CYRILLIC CAPITAL LETTER ZHE
ENCODING 1046
SWIDTH 500 0
DWIDTH 6 0
BBX 6 12 0 -3
BITMAP
00
A8
A8
70
20
70
A8
A8
A8
00
00
00
ENDCHAR
STARTCHAR CYRILLIC CAPITAL LETTER ZE
ENCODING 1047
SWIDTH 500 0
DWIDTH 6 0
BBX 6 12 0 -3
BITMAP
00
F0
08
08
70
08
08
08
F0
00
00
00
ENDCHAR
STARTCHAR CYRILLIC CAPITAL LETTER I
ENCODING 1048
SWIDTH 500 0
DWIDTH 6 0
BBX 6 12 0 -3
BITMAP
00
88
98
98
A8
A8
C8
C8
88
00
00
00
ENDCHAR
STARTCHAR CYRILLIC CAPITAL LETTER SHORT I
ENCODING 1049
SWIDTH 500 0
DWIDTH 6 0
BBX 6 12 0 -3
BITMAP
50
20
88
98
98
A8
A8
C8
C8
00
00
00
ENDCHAR
STARTCHAR CYRILLIC CAPITAL LETTER KA
ENCODING 1050
SWIDTH 500 0
DWIDTH 6 0
BBX 6 12 0 -3
BITMAP
00
88
88
90
E0
90
88
88
88
00
00
00
ENDCHAR
STARTCHAR CYRILLIC CAPITAL LETTER EL
ENCODING 1051
SWIDTH 500 0
DWIDTH 6 0
BBX 6 12 0 -3
BITMAP
00
78
88
88
88
88
88
88
88
00
00
00
ENDCHAR
STARTCHAR CYRILLIC CAPITAL LETTER EM
ENCODING 1052
SWIDTH 500 0
DWIDTH 6 0
BBX 6 12 0 -3
BITMAP
00
88
D8
F8
A8
88
88
88
88
00
00
00
ENDCHAR
STARTCHAR CYRILLIC CAPITAL LETTER EN
ENCODING 1053
SWIDTH 500 0
DWIDTH 6 0
BBX 6 12 0 -3
BITMAP
00
88
88
88
F8
88
88
88
88
00
00
00
ENDCHAR
STARTCHAR CYRILLIC CAPITAL LETTER O
ENCODING 1054
SWIDTH 500 0
DWIDTH 6 0
BBX 6 12 0 -3
BITMAP
00
70
88
88
88
88
88
88
70
00
00
00
ENDCHAR
STARTCHAR CYRILLIC CAPITAL LETTER PE
ENCODING 1055
SWIDTH 500 0
DWIDTH 6 0
BBX 6 12 0 -3
BITMAP
00
F8
88
88
88
88
88
88
88
00
00
00
ENDCHAR
STARTCHAR CYRILLIC CAPITAL LETTER ER
ENCODING 1056
SWIDTH 500 0
DWIDTH 6 0
BBX 6 12 0 -3
BITMAP
00
F0
88
88
88
F0
80
80
80
00
00
00
ENDCHAR
STARTCHAR CYRILLIC CAPITAL LETTER ES
ENCODING 1057
SWIDTH 500 0
DWIDTH 6 0
BBX 6 12 0 -3
BITMAP
00
78
80
80
80
80
80
80
78
00
00
00
ENDCHAR
STARTCHAR CYRILLIC CAPITAL LETTER TE
ENCODING 1058
SWIDTH 500 0
DWIDTH 6 0
BBX 6 12 0 -3
BITMAP
00
F8
20
20
20
20
20
20
20
00
00
00
ENDCHAR
STARTCHAR CYRILLIC CAPITAL LETTER U
ENCODING 1059
SWIDTH 500 0
DWIDTH 6 0
BBX 6 12 0 -3
BITMAP
00
88
88
88
88
78
08
08
F0
00
00
00
ENDCHAR
STARTCHAR CYRILLIC CAPITAL LETTER EF
ENCODING 1060
SWIDTH 500 0
DWIDTH 6 0
BBX 6 12 0 -3
BITMAP
00
20
70
A8
A8
A8
A8
70
20
00
00
00
ENDCHAR
STARTCHAR CYRILLIC CAPITAL LETTER HA
ENCODING 1061
SWIDTH 500 0
DWIDTH 6 0
BBX 6 12 0 -3
BITMAP
00
88
88
50
20
50
88
88
88
00
00
00
ENDCHAR
STARTCHAR CYRILLIC CAPITAL LETTER TSE
ENCODING 1062
SWIDTH 500 0
DWIDTH 6 0
BBX 6 12 0 -3
BITMAP
00
88
88
88
88
88
88
88
7C
04
04
08
ENDCHAR
STARTCHAR CYRILLIC CAPITAL LETTER CHE
ENCODING 1063
SWIDTH 500 0
DWIDTH 6 0
BBX 6 12 0 -3
BITMAP
00
88
88
88
88
78
08
08
08
00
00
00
ENDCHAR
STARTCHAR CYRILLIC CAPITAL LETTER SHA
ENCODING 1064
SWIDTH 500 0
DWIDTH 6 0
BBX 6 12 0 -3
BITMAP
00
A8
A8
A8
A8
A8
A8
A8
70
00
00
00
ENDCHAR
STARTCHAR CYRILLIC CAPITAL LETTER SHCHA
ENCODING 1065
SWIDTH 500 0
DWIDTH 6 0
BBX 6 12 0 -3
BITMAP
00
A8
A8
A8
A8
A8
A8
A8
7C
04
04
08
ENDCHAR
STARTCHAR CYRILLIC CAPITAL LETTER HARD SIGN
ENCODING 1066
SWIDTH 500 0
DWIDTH 6 0
BBX 6 12 0 -3
BITMAP
00
E0
20
20
30
28
28
28
30
00
00
00
ENDCHAR
STARTCHAR CYRILLIC CAPITAL LETTER YERU
ENCODING 1067
SWIDTH 500 0
DWIDTH 6 0
BBX 6 12 0 -3
BITMAP
00
88
88
88
C8
A8
A8
A8
C8
00
00
00
ENDCHAR
STARTCHAR CYRILLIC CAPITAL LETTER SOFT SIGN
ENCODING 1068
SWIDTH 500 0
DWIDTH 6 0
BBX 6 12 0 -3
BITMAP
00
20
20
20
30
28
28
28
30
00
00
00
ENDCHAR
STARTCHAR CYRILLIC CAPITAL LETTER E
ENCODING 1069
SWIDTH 500 0
DWIDTH 6 0
BBX 6 12 0 -3
BITMAP
00
F0
08
08
78
08
08
08
F0
00
00
00
ENDCHAR
STARTCHAR CYRILLIC CAPITAL LETTER YU
ENCODING 1070
SWIDTH 500 0
DWIDTH 6 0
BBX 6 12 0 -3
BITMAP
00
90
A8
A8
E8
A8
A8
A8
90
00
00
00
ENDCHAR
STARTCHAR CYRILLIC CAPITAL LETTER YA
ENCODING 1071
SWIDTH 500 0
DWIDTH 6 0
BBX 6 12 0 -3
BITMAP
00
78
88
88
88
78
88
88
88
00
00
00
ENDCHAR
STARTCHAR CYRILLIC SMALL LETTER A
ENCODING 1072
SWIDTH 500 0
DWIDTH 6 0
BBX 6 12 0 -3
BITMAP
00
00
00
70
08
78
88
88
78
00
00
00
ENDCHAR
STARTCHAR CYRILLIC SMALL LETTER BE
ENCODING 1073
SWIDTH 500 0
DWIDTH 6 0
BBX 6 12 0 -3
BITMAP
00
00
00
70
80
F0
88
88
70
00
00
00
ENDCHAR
STARTCHAR CYRILLIC SMALL LETTER VE
ENCODING 1074
SWIDTH 500 0
DWIDTH 6 0
BBX 6 12 0 -3
BITMAP
00
40
A0
A0
F0
88
88
88
70
00
00
00
ENDCHAR
STARTCHAR CYRILLIC SMALL LETTER GHE
ENCODING 1075
SWIDTH 500 0
DWIDTH 6 0
BBX 6 12 0 -3
BITMAP
00
00
00
F0
08
70
80
80
78
00
00
00
ENDCHAR
STARTCHAR CYRILLIC SMALL LETTER DE
ENCODING 1076
SWIDTH 500 0
DWIDTH 6 0
BBX 6 12 0 -3
BITMAP
00
00
00
78
88
88
88
88
78
08
F0
00
ENDCHAR
STARTCHAR CYRILLIC SMALL LETTER IE
ENCODING 1077
SWIDTH 500 0
DWIDTH 6 0
BBX 6 12 0 -3
BITMAP
00
00
00
78
88
88
F8
80
78
00
00
00
ENDCHAR
STARTCHAR CYRILLIC SMALL LETTER ZHE
ENCODING 1078
SWIDTH 500 0
DWIDTH 6 0
BBX 6 12 0 -3
BITMAP
00
00
00
A8
A8
70
70
A8
A8
00
00
00
ENDCHAR
STARTCHAR CYRILLIC SMALL LETTER ZE
ENCODING 1079
SWIDTH 500 0
DWIDTH 6 0
BBX 6 12 0 -3
BITMAP
00
00
00
F0
08
70
08
08
F0
00
00
00
ENDCHAR
STARTCHAR CYRILLIC SMALL LETTER I
ENCODING 1080
SWIDTH 500 0
DWIDTH 6 0
BBX 6 12 0 -3
BITMAP
00
00
00
88
88
88
88
88
78
00
00
00
ENDCHAR
STARTCHAR CYRILLIC SMALL LETTER SHORT I
ENCODING 1081
SWIDTH 500 0
DWIDTH 6 0
BBX 6 12 0 -3
BITMAP
00
50
20
88
88
88
88
88
78
00
00
00
ENDCHAR
STARTCHAR CYRILLIC SMALL LETTER KA
ENCODING 1082
SWIDTH 500 0
DWIDTH 6 0
BBX 6 12 0 -3
BITMAP
00
00
00
88
90
A0
E0
90
88
00
00
00
ENDCHAR
STARTCHAR CYRILLIC SMALL LETTER EL
ENCODING 1083
SWIDTH 500 0
DWIDTH 6 0
BBX 6 12 0 -3
BITMAP
00
00
00
78
88
88
88
88
88
00
00
00
ENDCHAR
STARTCHAR CYRILLIC SMALL LETTER EM
ENCODING 1084
SWIDTH 500 0
DWIDTH 6 0
BBX 6 12 0 -3
BITMAP
00
00
00
88
D8
F8
A8
88
88
00
00
00
ENDCHAR
STARTCHAR CYRILLIC SMALL LETTER EN
ENCODING 1085
SWIDTH 500 0
DWIDTH 6 0
BBX 6 12 0 -3
BITMAP
00
00
00
88
88
F8
88
88
88
00
00
00
ENDCHAR
STARTCHAR CYRILLIC SMALL LETTER O
ENCODING 1086
SWIDTH 500 0
DWIDTH 6 0
BBX 6 12 0 -3
BITMAP
00
00
00
70
88
88
88
88
70
00
00
00
ENDCHAR
STARTCHAR CYRILLIC SMALL LETTER PE
ENCODING 1087
SWIDTH 500 0
DWIDTH 6 0
BBX 6 12 0 -3
BITMAP
00
00
00
F0
88
88
88
88
88
00
00
00
ENDCHAR
STARTCHAR CYRILLIC SMALL LETTER ER
ENCODING 1088
SWIDTH 500 0
DWIDTH 6 0
BBX 6 12 0 -3
BITMAP
00
00
00
F0
88
88
88
88
F0
80
80
80
ENDCHAR
STARTCHAR CYRILLIC SMALL LETTER ES
ENCODING 1089
SWIDTH 500 0
DWIDTH 6 0
BBX 6 12 0 -3
BITMAP
00
00
00
78
80
80
80
80
78
00
00
00
ENDCHAR
STARTCHAR CYRILLIC SMALL LETTER TE
ENCODING 1090
SWIDTH 500 0
DWIDTH 6 0
BBX 6 12 0 -3
BITMAP
00
00
00
F0
A8
A8
A8
88
88
00
00
00
ENDCHAR
STARTCHAR CYRILLIC SMALL LETTER U
ENCODING 1091
SWIDTH 500 0
DWIDTH 6 0
BBX 6 12 0 -3
BITMAP
00
00
00
88
88
88
88
88
78
08
08
F0
ENDCHAR
STARTCHAR CYRILLIC SMALL LETTER EF
ENCODING 1092
SWIDTH 500 0
DWIDTH 6 0
BBX 6 12 0 -3
BITMAP
00
00
00
70
A8
A8
A8
A8
70
20
20
00
ENDCHAR
STARTCHAR CYRILLIC SMALL LETTER HA
ENCODING 1093
SWIDTH 500 0
DWIDTH 6 0
BBX 6 12 0 -3
BITMAP
00
00
00
88
88
70
70
88
88
00
00
00
ENDCHAR
STARTCHAR CYRILLIC SMALL LETTER TSE
ENCODING 1094
SWIDTH 500 0
DWIDTH 6 0
BBX 6 12 0 -3
BITMAP
00
00
00
88
88
88
88
88
7C
04
04
08
ENDCHAR
STARTCHAR CYRILLIC SMALL LETTER CHE
ENCODING 1095
SWIDTH 500 0
DWIDTH 6 0
BBX 6 12 0 -3
BITMAP
00
00
00
88
88
88
78
08
08
00
00
00
ENDCHAR
STARTCHAR CYRILLIC SMALL LETTER SHA
ENCODING 1096
SWIDTH 500 0
DWIDTH 6 0
BBX 6 12 0 -3
BITMAP
00
00
00
88
88
A8
A8
A8
78
00
00
00
ENDCHAR
STARTCHAR CYRILLIC SMALL LETTER SHCHA
ENCODING 1097
SWIDTH 500 0
DWIDTH 6 0
BBX 6 12 0 -3
BITMAP
00
00
00
88
88
A8
A8
A8
7C
04
04
08
ENDCHAR
STARTCHAR CYRILLIC SMALL LETTER HARD SIGN
ENCODING 1098
SWIDTH 500 0
DWIDTH 6 0
BBX 6 12 0 -3
BITMAP
00
00
00
E0
20
30
28
28
30
00
00
00
ENDCHAR
STARTCHAR CYRILLIC SMALL LETTER YERU
ENCODING 1099
SWIDTH 500 0
DWIDTH 6 0
BBX 6 12 0 -3
BITMAP
00
00
00
88
88
C8
A8
A8
C8
00
00
00
ENDCHAR
STARTCHAR CYRILLIC SMALL LETTER SOFT SIGN
ENCODING 1100
SWIDTH 500 0
DWIDTH 6 0
BBX 6 12 0 -3
BITMAP
00
00
00
20
20
30
28
28
30
00
00
00
ENDCHAR
STARTCHAR CYRILLIC SMALL LETTER E
ENCODING 1101
SWIDTH 500 0
DWIDTH 6 0
BBX 6 12 0 -3
BITMAP
00
00
00
F0
08
08
78
08
F0
00
00
00
ENDCHAR
STARTCHAR CYRILLIC SMALL LETTER YU
ENCODING 1102
SWIDTH 500 0
DWIDTH 6 0
BBX 6 12 0 -3
BITMAP
00
00
00
90
A8
E8
A8
A8
90
00
00
00
ENDCHAR
STARTCHAR CYRILLIC SMALL LETTER YA
ENCODING 1103
SWIDTH 500 0
DWIDTH 6 0
BBX 6 12 0 -3
BITMAP
00
00
00
78
88
88
78
88
88
00
00
00
ENDCHAR
STARTCHAR CYRILLIC SMALL LETTER IO
ENCODING 1105
SWIDTH 500 0
DWIDTH 6 0
BBX 6 12 0 -3
BITMAP
00
50
00
78
88
88
F8
80
78
00
00
00
ENDCHAR
STARTCHAR CYRILLIC SMALL LETTER BYELORUSSIAN-UKRAINIAN I
ENCODING 1110
SWIDTH 500 0
DWIDTH 6 0
BBX 6 12 0 -3
BITMAP
00
20
00
60
20
20
20
20
30
00
00
00
ENDCHAR
STARTCHAR CYRILLIC SMALL LETTER YI
ENCODING 1111
SWIDTH 500 0
DWIDTH 6 0
BBX 6 12 0 -3
BITMAP
00
50
00
60
20
20
20
20
30
00
00
00
ENDCHAR
STARTCHAR CYRILLIC SMALL LETTER SHORT U
ENCODING 1118
SWIDTH 500 0
DWIDTH 6 0
BBX 6 12 0 -3
BITMAP
00
50
20
88
88
88
88
88
78
08
08
F0
ENDCHAR
STARTCHAR CYRILLIC CAPITAL LETTER GHE WITH UPTURN
ENCODING 1168
SWIDTH 500 0
DWIDTH 6 0
BBX 6 12 0 -3
BITMAP
00
08
70
80
80
80
80
80
80
00
00
00
ENDCHAR
STARTCHAR CYRILLIC SMALL LETTER GHE WITH UPTURN
ENCODING 1169
SWIDTH 500 0
DWIDTH 6 0
BBX 6 12 0 -3
BITMAP
00
00
00
08
70
80
80
80
80
00
00
00
ENDCHAR
STARTCHAR BOX DRAWINGS LIGHT HORIZONTAL
ENCODING 9472
SWIDTH 500 0
DWIDTH 6 0
BBX 6 12 0 -3
BITMAP
00
00
00
00
00
FC
00
00
00
00
00
00
ENDCHAR
STARTCHAR BOX DRAWINGS LIGHT VERTICAL
ENCODING 9474
SWIDTH 500 0
DWIDTH 6 0
BBX 6 12 0 -3
BITMAP
10
10
10
10
10
10
10
10
10
10
10
10
ENDCHAR
STARTCHAR BOX DRAWINGS LIGHT DOWN AND RIGHT
ENCODING 9484
SWIDTH 500 0
DWIDTH 6 0
BBX 6 12 0 -3
BITMAP
00
00
00
00
00
1C
10
10
10
10
10
10
ENDCHAR
STARTCHAR BOX DRAWINGS LIGHT DOWN AND LEFT
ENCODING 9488
SWIDTH 500 0
DWIDTH 6 0
BBX 6 12 0 -3
BITMAP
00
00
00
00
00
F0
10
10
10
10
10
10
ENDCHAR
STARTCHAR BOX DRAWINGS LIGHT UP AND RIGHT
ENCODING 9492
SWIDTH 500 0
DWIDTH 6 0
BBX 6 12 0 -3
BITMAP
10
10
10
10
10
1C
00
00
00
00
00
00
ENDCHAR
STARTCHAR BOX DRAWINGS LIGHT UP AND LEFT
ENCODING 9496
SWIDTH 500 0
DWIDTH 6 0
BBX 6 12 0 -3
BITMAP
10
10
10
10
10
F0
00
00
00
00
00
00
ENDCHAR
STARTCHAR BOX DRAWINGS LIGHT VERTICAL AND RIGHT
ENCODING 9500
SWIDTH 500 0
DWIDTH 6 0
BBX 6 12 0 -3
BITMAP
10
10
10
10
10
1C
10
10
10
10
10
10
ENDCHAR
STARTCHAR BOX DRAWINGS LIGHT VERTICAL AND LEFT
ENCODING 9508
SWIDTH 500 0
DWIDTH 6 0
BBX 6 12 0 -3
BITMAP
10
10
10
10
10
F0
10
10
10
10
10
10
ENDCHAR
STARTCHAR BOX DRAWINGS LIGHT DOWN AND HORIZONTAL
ENCODING 9516
SWIDTH 500 0
DWIDTH 6 0
BBX 6 12 0 -3
BITMAP
00
00
00
00
00
FC
10
10
10
10
10
10
ENDCHAR
STARTCHAR BOX DRAWINGS LIGHT UP AND HORIZONTAL
ENCODING 9524
SWIDTH 500 0
DWIDTH 6 0
BBX 6 12 0 -3
BITMAP
10
10
10
10
10
FC
00
00
00
00
00
00
ENDCHAR
STARTCHAR BOX DRAWINGS LIGHT VERTICAL AND HORIZONTAL
ENCODING 9532
SWIDTH 500 0
DWIDTH 6 0
BBX 6 12 0 -3
BITMAP
10
10
10
10
10
FC
10
10
10
10
10
10
ENDCHAR
STARTCHAR BLACK DIAMOND
ENCODING 9670
SWIDTH 500 0
DWIDTH 6 0
BBX 6 12 0 -3
BITMAP
00
00
00
20
70
F8
70
20
00
00
00
00
ENDCHAR
STARTCHAR LOZENGE
ENCODING 9674
SWIDTH 500 0
DWIDTH 6 0
BBX 6 12 0 -3
BITMAP
00
00
00
20
50
88
50
20
00
00
00
00
ENDCHAR
STARTCHAR BLACK LOWER RIGHT TRIANGLE
ENCODING 9698
SWIDTH 500 0
DWIDTH 6 0
BBX 6 12 0 -3
BITMAP
00
00
00
00
00
00
04
0C
1C
3C
7C
FC
ENDCHAR
STARTCHAR BLACK LOWER LEFT TRIANGLE
ENCODING 9699
SWIDTH 500 0
DWIDTH 6 0
BBX 6 12 0 -3
BITMAP
00
00
00
00
00
00
80
C0
E0
F0
F8
FC
ENDCHAR
STARTCHAR BLACK UPPER LEFT TRIANGLE
ENCODING 9700
SWIDTH 500 0
DWIDTH 6 0
BBX 6 12 0 -3
BITMAP
FC
F8
F0
E0
C0
80
00
00
00
00
00
00
ENDCHAR
STARTCHAR BLACK UPPER RIGHT TRIANGLE
ENCODING 9701
SWIDTH 500 0
DWIDTH 6 0
BBX 6 12 0 -3
BITMAP
FC
7C
3C
1C
0C
04
00
00
00
00
00
00
ENDCHAR
STARTCHAR BLACK HEART SUIT
ENCODING 9829
SWIDTH 500 0
DWIDTH 6 0
BBX 6 12 0 -3
BITMAP
00
00
00
50
F8
F8
70
20
00
00
00
00
ENDCHAR
STARTCHAR BLACK DIAMOND SUIT
ENCODING 9830
SWIDTH 500 0
DWIDTH 6 0
BBX 6 12 0 -3
BITMAP
00
00
00
20
70
F8
70
20
00
00
00
00
ENDCHAR
STARTCHAR BRAILLE PATTERN BLANK
ENCODING 10240
SWIDTH 500 0
DWIDTH 6 0
BBX 6 12 0 -3
BITMAP
00
00
00
00
00
00
00
00
00
00
00
00
ENDCHAR
STARTCHAR BRAILLE PATTERN DOTS-1
ENCODING 10241
SWIDTH 500 0
DWIDTH 6 0
BBX 6 12 0 -3
BITMAP
00
40
00
00
00
00
00
00
00
00
00
00
ENDCHAR
STARTCHAR BRAILLE PATTERN DOTS-2
ENCODING 10242
SWIDTH 500 0
DWIDTH 6 0
BBX 6 12 0 -3
BITMAP
00
00
00
00
40
00
00
00
00
00
00
00
ENDCHAR
STARTCHAR BRAILLE PATTERN DOTS-12
ENCODING 10243
SWIDTH 500 0
DWIDTH 6 0
BBX 6 12 0 -3
BITMAP
00
40
00
00
40
00
00
00
00
00
00
00
ENDCHAR
STARTCHAR BRAILLE PATTERN DOTS-3
ENCODING 10244
SWIDTH 500 0
DWIDTH 6 0
BBX 6 12 0 -3
BITMAP
00
00
00
00
00
00
00
40
00
00
00
00
ENDCHAR
STARTCHAR BRAILLE PATTERN DOTS-13
ENCODING 10245
SWIDTH 500 0
DWIDTH 6 0
BBX 6 12 0 -3
BITMAP
00
40
00
00
00
00
00
40
00
00
00
00
ENDCHAR
STARTCHAR BRAILLE PATTERN DOTS-23
ENCODING 10246
SWIDTH 500 0
DWIDTH 6 0
BBX 6 12 0 -3
BITMAP
00
00
00
00
40
00
00
40
00
00
00
00
ENDCHAR
STARTCHAR BRAILLE PATTERN DOTS-123
ENCODING 10247
SWIDTH 500 0
DWIDTH 6 0
BBX 6 12 0 -3
BITMAP
00
40
00
00
40
00
00
40
00
00
00
00
ENDCHAR
STARTCHAR BRAILLE PATTERN DOTS-4
ENCODING 10248
SWIDTH 500 0
DWIDTH 6 0
BBX 6 12 0 -3
BITMAP
00
08
00
00
00
00
00
00
00
00
00
00
ENDCHAR
STARTCHAR BRAILLE PATTERN DOTS-14
ENCODING 10249
SWIDTH 500 0
DWIDTH 6 0
BBX 6 12 0 -3
BITMAP
00
48
00
00
00
00
00
00
00
00
00
00
ENDCHAR
STARTCHAR BRAILLE PATTERN DOTS-24
ENCODING 10250
SWIDTH 500 0
DWIDTH 6 0
BBX 6 12 0 -3
BITMAP
00
08
00
00
40
00
00
00
00
00
00
00
ENDCHAR
STARTCHAR BRAILLE PATTERN DOTS-124
ENCODING 10251
SWIDTH 500 0
DWIDTH 6 0
BBX 6 12 0 -3
BITMAP
00
48
00
00
40
00
00
00
00
00
00
00
ENDCHAR
STARTCHAR BRAILLE PATTERN DOTS-34
ENCODING 10252
SWIDTH 500 0
DWIDTH 6 0
BBX 6 12 0 -3
BITMAP
00
08
00
00
00
00
00
40
00
00
00
00
ENDCHAR
STARTCHAR BRAILLE PATTERN DOTS-134
ENCODING 10253
SWIDTH 500 0
DWIDTH 6 0
BBX 6 12 0 -3
BITMAP
00
48
00
00
00
00
00
40
00
00
00
00
ENDCHAR
STARTCHAR BRAILLE PATTERN DOTS-234
ENCODING 10254
SWIDTH 500 0
DWIDTH 6 0
BBX 6 12 0 -3
BITMAP
00
08
00
00
40
00
00
40
00
00
00
00
ENDCHAR
STARTCHAR BRAILLE PATTERN DOTS-1234
ENCODING 10255
SWIDTH 500 0
DWIDTH 6 0
BBX 6 12 0 -3
BITMAP
00
48
00
00
40
00
00
40
00
00
00
00
ENDCHAR
STARTCHAR BRAILLE PATTERN DOTS-5
ENCODING 10256
SWIDTH 500 0
DWIDTH 6 0
BBX 6 12 0 -3
BITMAP
00
00
00
00
08
00
00
00
00
00
00
00
ENDCHAR
STARTCHAR BRAILLE PATTERN DOTS-15
ENCODING 10257
SWIDTH 500 0
DWIDTH 6 0
BBX 6 12 0 -3
BITMAP
00
40
00
00
08
00
00
00
00
00
00
00
ENDCHAR
STARTCHAR BRAILLE PATTERN DOTS-25
ENCODING 10258
SWIDTH 500 0
DWIDTH 6 0
BBX 6 12 0 -3
BITMAP
00
00
00
00
48
00
00
00
00
00
00
00
ENDCHAR
STARTCHAR BRAILLE PATTERN DOTS-125
ENCODING 10259
SWIDTH 500 0
DWIDTH 6 0
BBX 6 12 0 -3
BITMAP
00
40
00
00
48
00
00
00
00
00
00
00
ENDCHAR
STARTCHAR BRAILLE PATTERN DOTS-35
ENCODING 10260
SWIDTH 500 0
DWIDTH 6 0
BBX 6 12 0 -3
BITMAP
00
00
00
00
08
00
00
40
00
00
00
00
ENDCHAR
STARTCHAR BRAILLE PATTERN DOTS-135
ENCODING 10261
SWIDTH 500 0
DWIDTH 6 0
BBX 6 12 0 -3
BITMAP
00
40
00
00
08
00
00
40
00
00
00
00
ENDCHAR
STARTCHAR BRAILLE PATTERN DOTS-235
ENCODING 10262
SWIDTH 500 0
DWIDTH 6 0
BBX 6 12 0 -3
BITMAP
00
00
00
00
48
00
00
40
00
00
00
00
ENDCHAR
STARTCHAR BRAILLE PATTERN DOTS-1235
ENCODING 10263
SWIDTH 500 0
DWIDTH 6 0
BBX 6 12 0 -3
BITMAP
00
40
00
00
48
00
00
40
00
00
00
00
ENDCHAR
STARTCHAR BRAILLE PATTERN DOTS-45
ENCODING 10264
SWIDTH 500 0
DWIDTH 6 0
BBX 6 12 0 -3
BITMAP
00
08
00
00
08
00
00
00
00
00
00
00
ENDCHAR
STARTCHAR BRAILLE PATTERN DOTS-145
ENCODING 10265
SWIDTH 500 0
DWIDTH 6 0
BBX 6 12 0 -3
BITMAP
00
48
00
00
08
00
00
00
00
00
00
00
ENDCHAR
STARTCHAR BRAILLE PATTERN DOTS-245
ENCODING 10266
SWIDTH 500 0
DWIDTH 6 0
BBX 6 12 0 -3
BITMAP
00
08
00
00
48
00
00
00
00
00
00
00
ENDCHAR
STARTCHAR BRAILLE PATTERN DOTS-1245
ENCODING 10267
SWIDTH 500 0
DWIDTH 6 0
BBX 6 12 0 -3
BITMAP
00
48
00
00
48
00
00
00
00
00
00
00
ENDCHAR
STARTCHAR BRAILLE PATTERN DOTS-345
ENCODING 10268
SWIDTH 500 0
DWIDTH 6 0
BBX 6 12 0 -3
BITMAP
00
08
00
00
08
00
00
40
00
00
00
00
ENDCHAR
STARTCHAR BRAILLE PATTERN DOTS-1345
ENCODING 10269
SWIDTH 500 0
DWIDTH 6 0
BBX 6 12 0 -3
BITMAP
00
48
00
00
08
00
00
40
00
00
00
00
ENDCHAR
STARTCHAR BRAILLE PATTERN DOTS-2345
ENCODING 10270
SWIDTH 500 0
DWIDTH 6 0
BBX 6 12 0 -3
BITMAP
00
08
00
00
48
00
00
40
00
00
00
00
ENDCHAR
STARTCHAR BRAILLE PATTERN DOTS-12345
ENCODING 10271
SWIDTH 500 0
DWIDTH 6 0
BBX 6 12 0 -3
BITMAP
00
48
00
00
48
00
00
40
00
00
00
00
ENDCHAR
STARTCHAR BRAILLE PATTERN DOTS-6
ENCODING 10272
SWIDTH 500 0
DWIDTH 6 0
BBX 6 12 0 -3
BITMAP
00
00
00
00
00
00
00
08
00
00
00
00
ENDCHAR
STARTCHAR BRAILLE PATTERN DOTS-16
ENCODING 10273
SWIDTH 500 0
DWIDTH 6 0
BBX 6 12 0 -3
BITMAP
00
40
00
00
00
00
00
08
00
00
00
00
ENDCHAR
STARTCHAR BRAILLE PATTERN DOTS-26
ENCODING 10274
SWIDTH 500 0
DWIDTH 6 0
BBX 6 12 0 -3
BITMAP
00
00
00
00
40
00
00
08
00
00
00
00
ENDCHAR
STARTCHAR BRAILLE PATTERN DOTS-126
ENCODING 10275
SWIDTH 500 0
DWIDTH 6 0
BBX 6 12 0 -3
BITMAP
00
40
00
00
40
00
00
08
00
00
00
00
ENDCHAR
STARTCHAR BRAILLE PATTERN DOTS-36
ENCODING 10276
SWIDTH 500 0
DWIDTH 6 0
BBX 6 12 0 -3
BITMAP
00
00
00
00
00
00
00
48
00
00
00
00
ENDCHAR
STARTCHAR BRAILLE PATTERN DOTS-136
ENCODING 10277
SWIDTH 500 0
DWIDTH 6 0
BBX 6 12 0 -3
BITMAP
00
40
00
00
00
00
00
48
00
00
00
00
ENDCHAR
STARTCHAR BRAILLE PATTERN DOTS-236
ENCODING 10278
SWIDTH 500 0
DWIDTH 6 0
BBX 6 12 0 -3
BITMAP
00
00
00
00
40
00
00
48
00
00
00
00
ENDCHAR
STARTCHAR BRAILLE PATTERN DOTS-1236
ENCODING 10279
SWIDTH 500 0
DWIDTH 6 0
BBX 6 12 0 -3
BITMAP
00
40
00
00
40
00
00
48
00
00
00
00
ENDCHAR
STARTCHAR BRAILLE PATTERN DOTS-46
ENCODING 10280
SWIDTH 500 0
DWIDTH 6 0
BBX 6 12 0 -3
BITMAP
00
08
00
00
00
00
00
08
00
00
00
00
ENDCHAR
STARTCHAR BRAILLE PATTERN DOTS-146
ENCODING 10281
SWIDTH 500 0
DWIDTH 6 0
BBX 6 12 0 -3
BITMAP
00
48
00
00
00
00
00
08
00
00
00
00
ENDCHAR
STARTCHAR BRAILLE PATTERN DOTS-246
ENCODING 10282
SWIDTH 500 0
DWIDTH 6 0
BBX 6 12 0 -3
BITMAP
00
08
00
00
40
00
00
08
00
00
00
00
ENDCHAR
STARTCHAR BRAILLE PATTERN DOTS-1246
ENCODING 10283
SWIDTH 500 0
DWIDTH 6 0
BBX 6 12 0 -3
BITMAP
00
48
00
00
40
00
00
08
00
00
00
00
ENDCHAR
STARTCHAR BRAILLE PATTERN DOTS-346
ENCODING 10284
SWIDTH 500 0
DWIDTH 6 0
BBX 6 12 0 -3
BITMAP
00
08
00
00
00
00
00
48
00
00
00
00
ENDCHAR
STARTCHAR BRAILLE PATTERN DOTS-1346
ENCODING 10285
SWIDTH 500 0
DWIDTH 6 0
BBX 6 12 0 -3
BITMAP
00
48
00
00
00
00
00
48
00
00
00
00
ENDCHAR
STARTCHAR BRAILLE PATTERN DOTS-2346
ENCODING 10286
SWIDTH 500 0
DWIDTH 6 0
BBX 6 12 0 -3
BITMAP
00
08
00
00
40
00
00
48
00
00
00
00
ENDCHAR
STARTCHAR BRAILLE PATTERN DOTS-12346
ENCODING 10287
SWIDTH 500 0
DWIDTH 6 0
BBX 6 12 0 -3
BITMAP
00
48
00
00
40
00
00
48
00
00
00
00
ENDCHAR
STARTCHAR BRAILLE PATTERN DOTS-56
ENCODING 10288
SWIDTH 500 0
DWIDTH 6 0
BBX 6 12 0 -3
BITMAP
00
00
00
00
08
00
00
08
00
00
00
00
ENDCHAR
STARTCHAR BRAILLE PATTERN DOTS-156
ENCODING 10289
SWIDTH 500 0
DWIDTH 6 0
BBX 6 12 0 -3
BITMAP
00
40
00
00
08
00
00
08
00
00
00
00
ENDCHAR
STARTCHAR BRAILLE PATTERN DOTS-256
ENCODING 10290
SWIDTH 500 0
DWIDTH 6 0
BBX 6 12 0 -3
BITMAP
00
00
00
00
48
00
00
08
00
00
00
00
ENDCHAR
STARTCHAR BRAILLE PATTERN DOTS-1256
ENCODING 10291
SWIDTH 500 0
DWIDTH 6 0
BBX 6 12 0 -3
BITMAP
00
40
00
00
48
00
00
08
00
00
00
00
ENDCHAR
STARTCHAR BRAILLE PATTERN DOTS-356
ENCODING 10292
SWIDTH 500 0
DWIDTH 6 0
BBX 6 12 0 -3
BITMAP
00
00
00
00
08
00
00
48
00
00
00
00
ENDCHAR
STARTCHAR BRAILLE PATTERN DOTS-1356
ENCODING 10293
SWIDTH 500 0
DWIDTH 6 0
BBX 6 12 0 -3
BITMAP
00
40
00
00
08
00
00
48
00
00
00
00
ENDCHAR
STARTCHAR BRAILLE PATTERN DOTS-2356
ENCODING 10294
SWIDTH 500 0
DWIDTH 6 0
BBX 6 12 0 -3
BITMAP
00
00
00
00
48
00
00
48
00
00
00
00
ENDCHAR
STARTCHAR BRAILLE PATTERN DOTS-12356
ENCODING 10295
SWIDTH 500 0
DWIDTH 6 0
BBX 6 12 0 -3
BITMAP
00
40
00
00
48
00
00
48
00
00
00
00
ENDCHAR
STARTCHAR BRAILLE PATTERN DOTS-456
ENCODING 10296
SWIDTH 500 0
DWIDTH 6 0
BBX 6 12 0 -3
BITMAP
00
08
00
00
08
00
00
08
00
00
00
00
ENDCHAR
STARTCHAR BRAILLE PATTERN DOTS-1456
ENCODING 10297
SWIDTH 500 0
DWIDTH 6 0
BBX 6 12 0 -3
BITMAP
00
48
00
00
08
00
00
08
00
00
00
00
ENDCHAR
STARTCHAR BRAILLE PATTERN DOTS-2456
ENCODING 10298
SWIDTH 500 0
DWIDTH 6 0
BBX 6 12 0 -3
BITMAP
00
08
00
00
48
00
00
08
00
00
00
00
ENDCHAR
STARTCHAR BRAILLE PATTERN DOTS-12456
ENCODING 10299
SWIDTH 500 0
DWIDTH 6 0
BBX 6 12 0 -3
BITMAP
00
48
00
00
48
00
00
08
00
00
00
00
ENDCHAR
STARTCHAR BRAILLE PATTERN DOTS-3456
ENCODING 10300
SWIDTH 500 0
DWIDTH 6 0
BBX 6 12 0 -3
BITMAP
00
08
00
00
08
00
00
48
00
00
00
00
ENDCHAR
STARTCHAR BRAILLE PATTERN DOTS-13456
ENCODING 10301
SWIDTH 500 0
DWIDTH 6 0
BBX 6 12 0 -3
BITMAP
00
48
00
00
08
00
00
48
00
00
00
00
ENDCHAR
STARTCHAR BRAILLE PATTERN DOTS-23456
ENCODING 10302
SWIDTH 500 0
DWIDTH 6 0
BBX 6 12 0 -3
BITMAP
00
08
00
00
48
00
00
48
00
00
00
00
ENDCHAR
STARTCHAR BRAILLE PATTERN DOTS-123456
ENCODING 10303
SWIDTH 500 0
DWIDTH 6 0
BBX 6 12 0 -3
BITMAP
00
48
00
00
48
00
00
48
00
00
00
00
ENDCHAR
STARTCHAR BRAILLE PATTERN DOTS-7
ENCODING 10304
SWIDTH 500 0
DWIDTH 6 0
BBX 6 12 0 -3
BITMAP
00
00
00
00
00
00
00
00
00
00
40
00
ENDCHAR
STARTCHAR BRAILLE PATTERN DOTS-17
ENCODING 10305
SWIDTH 500 0
DWIDTH 6 0
BBX 6 12 0 -3
BITMAP
00
40
00
00
00
00
00
00
00
00
40
00
ENDCHAR
STARTCHAR BRAILLE PATTERN DOTS-27
ENCODING 10306
SWIDTH 500 0
DWIDTH 6 0
BBX 6 12 0 -3
BITMAP
00
00
00
00
40
00
00
00
00
00
40
00
ENDCHAR
STARTCHAR BRAILLE PATTERN DOTS-127
ENCODING 10307
SWIDTH 500 0
DWIDTH 6 0
BBX 6 12 0 -3
BITMAP
00
40
00
00
40
00
00
00
00
00
40
00
ENDCHAR
STARTCHAR BRAILLE PATTERN DOTS-37
ENCODING 10308
SWIDTH 500 0
DWIDTH 6 0
BBX 6 12 0 -3
BITMAP
00
00
00
00
00
00
00
40
00
00
40
00
ENDCHAR
STARTCHAR BRAILLE PATTERN DOTS-137
ENCODING 10309
SWIDTH 500 0
DWIDTH 6 0
BBX 6 12 0 -3
BITMAP
00
40
00
00
00
00
00
40
00
00
40
00
ENDCHAR
STARTCHAR BRAILLE PATTERN DOTS-237
ENCODING 10310
SWIDTH 500 0
DWIDTH 6 0
BBX 6 12 0 -3
BITMAP
00
00
00
00
40
00
00
40
00
00
40
00
ENDCHAR
STARTCHAR BRAILLE PATTERN DOTS-1237
ENCODING 10311
SWIDTH 500 0
DWIDTH 6 0
BBX 6 12 0 -3
BITMAP
00
40
00
00
40
00
00
40
00
00
40
00
ENDCHAR
STARTCHAR BRAILLE PATTERN DOTS-47
ENCODING 10312
SWIDTH 500 0
DWIDTH 6 0
BBX 6 12 0 -3
BITMAP
00
08
00
00
00
00
00
00
00
00
40
00
ENDCHAR
STARTCHAR BRAILLE PATTERN DOTS-147
ENCODING 10313
SWIDTH 500 0
DWIDTH 6 0
BBX 6 12 0 -3
BITMAP
00
48
00
00
00
00
00
00
00
00
40
00
ENDCHAR
STARTCHAR BRAILLE PATTERN DOTS-247
ENCODING 10314
SWIDTH 500 0
DWIDTH 6 0
BBX 6 12 0 -3
BITMAP
00
08
00
00
40
00
00
00
00
00
40
00
ENDCHAR
STARTCHAR BRAILLE PATTERN DOTS-1247
ENCODING 10315
SWIDTH 500 0
DWIDTH 6 0
BBX 6 12 0 -3
BITMAP
00
48
00
00
40
00
00
00
00
00
40
00
ENDCHAR
STARTCHAR BRAILLE PATTERN DOTS-347
ENCODING 10316
SWIDTH 500 0
DWIDTH 6 0
BBX 6 12 0 -3
BITMAP
00
08
00
00
00
00
00
40
00
00
40
00
ENDCHAR
STARTCHAR BRAILLE PATTERN DOTS-1347
ENCODING 10317
SWIDTH 500 0
DWIDTH 6 0
BBX 6 12 0 -3
BITMAP
00
48
00
00
00
00
00
40
00
00
40
00
ENDCHAR
STARTCHAR BRAILLE PATTERN DOTS-2347
ENCODING 10318
SWIDTH 500 0
DWIDTH 6 0
BBX 6 12 0 -3
BITMAP
00
08
00
00
40
00
00
40
00
00
40
00
ENDCHAR
STARTCHAR BRAILLE PATTERN DOTS-12347
ENCODING 10319
SWIDTH 500 0
DWIDTH 6 0
BBX 6 12 0 -3
BITMAP
00
48
00
00
40
00
00
40
00
00
40
00
ENDCHAR
STARTCHAR BRAILLE PATTERN DOTS-57
ENCODING 10320
SWIDTH 500 0
DWIDTH 6 0
BBX 6 12 0 -3
BITMAP
00
00
00
00
08
00
00
00
00
00
40
00
ENDCHAR
STARTCHAR BRAILLE PATTERN DOTS-157
ENCODING 10321
SWIDTH 500 0
DWIDTH 6 0
BBX 6 12 0 -3
BITMAP
00
40
00
00
08
00
00
00
00
00
40
00
ENDCHAR
STARTCHAR BRAILLE PATTERN DOTS-257
ENCODING 10322
SWIDTH 500 0
DWIDTH 6 0
BBX 6 12 0 -3
BITMAP
00
00
00
00
48
00
00
00
00
00
40
00
ENDCHAR
STARTCHAR BRAILLE PATTERN DOTS-1257
ENCODING 10323
SWIDTH 500 0
DWIDTH 6 0
BBX 6 12 0 -3
BITMAP
00
40
00
00
48
00
00
00
00
00
40
00
ENDCHAR
STARTCHAR BRAILLE PATTERN DOTS-357
ENCODING 10324
SWIDTH 500 0
DWIDTH 6 0
BBX 6 12 0 -3
BITMAP
00
00
00
00
08
00
00
40
00
00
40
00
ENDCHAR
STARTCHAR BRAILLE PATTERN DOTS-1357
ENCODING 10325
SWIDTH 500 0
DWIDTH 6 0
BBX 6 12 0 -3
BITMAP
00
40
00
00
08
00
00
40
00
00
40
00
ENDCHAR
STARTCHAR BRAILLE PATTERN DOTS-2357
ENCODING 10326
SWIDTH 500 0
DWIDTH 6 0
BBX 6 12 0 -3
BITMAP
00
00
00
00
48
00
00
40
00
00
40
00
ENDCHAR
STARTCHAR BRAILLE PATTERN DOTS-12357
ENCODING 10327
SWIDTH 500 0
DWIDTH 6 0
BBX 6 12 0 -3
BITMAP
00
40
00
00
48
00
00
40
00
00
40
00
ENDCHAR
STARTCHAR BRAILLE PATTERN DOTS-457
ENCODING 10328
SWIDTH 500 0
DWIDTH 6 0
BBX 6 12 0 -3
BITMAP
00
08
00
00
08
00
00
00
00
00
40
00
ENDCHAR
STARTCHAR BRAILLE PATTERN DOTS-1457
ENCODING 10329
SWIDTH 500 0
DWIDTH 6 0
BBX 6 12 0 -3
BITMAP
00
48
00
00
08
00
00
00
00
00
40
00
ENDCHAR
STARTCHAR BRAILLE PATTERN DOTS-2457
ENCODING 10330
SWIDTH 500 0
DWIDTH 6 0
BBX 6 12 0 -3
BITMAP
00
08
00
00
48
00
00
00
00
00
40
00
ENDCHAR
STARTCHAR BRAILLE PATTERN DOTS-12457
ENCODING 10331
SWIDTH 500 0
DWIDTH 6 0
BBX 6 12 0 -3
BITMAP
00
48
00
00
48
00
00
00
00
00
40
00
ENDCHAR
STARTCHAR BRAILLE PATTERN DOTS-3457
ENCODING 10332
SWIDTH 500 0
DWIDTH 6 0
BBX 6 12 0 -3
BITMAP
00
08
00
00
08
00
00
40
00
00
40
00
ENDCHAR
STARTCHAR BRAILLE PATTERN DOTS-13457
ENCODING 10333
SWIDTH 500 0
DWIDTH 6 0
BBX 6 12 0 -3
BITMAP
00
48
00
00
08
00
00
40
00
00
40
00
ENDCHAR
STARTCHAR BRAILLE PATTERN DOTS-23457
ENCODING 10334
SWIDTH 500 0
DWIDTH 6 0
BBX 6 12 0 -3
BITMAP
00
08
00
00
48
00
00
40
00
00
40
00
ENDCHAR
STARTCHAR BRAILLE PATTERN DOTS-123457
ENCODING 10335
SWIDTH 500 0
DWIDTH 6 0
BBX 6 12 0 -3
BITMAP
00
48
00
00
48
00
00
40
00
00
40
00
ENDCHAR
STARTCHAR BRAILLE PATTERN DOTS-67
ENCODING 10336
SWIDTH 500 0
DWIDTH 6 0
BBX 6 12 0 -3
BITMAP
00
00
00
00
00
00
00
08
00
00
40
00
ENDCHAR
STARTCHAR BRAILLE PATTERN DOTS-167
ENCODING 10337
SWIDTH 500 0
DWIDTH 6 0
BBX 6 12 0 -3
BITMAP
00
40
00
00
00
00
00
08
00
00
40
00
ENDCHAR
STARTCHAR BRAILLE PATTERN DOTS-267
ENCODING 10338
SWIDTH 500 0
DWIDTH 6 0
BBX 6 12 0 -3
BITMAP
00
00
00
00
40
00
00
08
00
00
40
00
ENDCHAR
STARTCHAR BRAILLE PATTERN DOTS-1267
ENCODING 10339
SWIDTH 500 0
DWIDTH 6 0
BBX 6 12 0 -3
BITMAP
00
40
00
00
40
00
00
08
00
00
40
00
ENDCHAR
STARTCHAR BRAILLE PATTERN DOTS-367
ENCODING 10340
SWIDTH 500 0
DWIDTH 6 0
BBX 6 12 0 -3
BITMAP
00
00
00
00
00
00
00
48
00
00
40
00
ENDCHAR
STARTCHAR BRAILLE PATTERN DOTS-1367
ENCODING 10341
SWIDTH 500 0
DWIDTH 6 0
BBX 6 12 0 -3
BITMAP
00
40
00
00
00
00
00
48
00
00
40
00
ENDCHAR
STARTCHAR BRAILLE PATTERN DOTS-2367
ENCODING 10342
SWIDTH 500 0
DWIDTH 6 0
BBX 6 12 0 -3
BITMAP
00
00
00
00
40
00
00
48
00
00
40
00
ENDCHAR
STARTCHAR BRAILLE PATTERN DOTS-12367
ENCODING 10343
SWIDTH 500 0
DWIDTH 6 0
BBX 6 12 0 -3
BITMAP
00
40
00
00
40
00
00
48
00
00
40
00
ENDCHAR
STARTCHAR BRAILLE PATTERN DOTS-467
ENCODING 10344
SWIDTH 500 0
DWIDTH 6 0
BBX 6 12 0 -3
BITMAP
00
08
00
00
00
00
00
08
00
00
40
00
ENDCHAR
STARTCHAR BRAILLE PATTERN DOTS-1467
ENCODING 10345
SWIDTH 500 0
DWIDTH 6 0
BBX 6 12 0 -3
BITMAP
00
48
00
00
00
00
00
08
00
00
40
00
ENDCHAR
STARTCHAR BRAILLE PATTERN DOTS-2467
ENCODING 10346
SWIDTH 500 0
DWIDTH 6 0
BBX 6 12 0 -3
BITMAP
00
08
00
00
40
00
00
08
00
00
40
00
ENDCHAR
STARTCHAR BRAILLE PATTERN DOTS-12467
ENCODING 10347
SWIDTH 500 0
DWIDTH 6 0
BBX 6 12 0 -3
BITMAP
00
48
00
00
40
00
00
08
00
00
40
00
ENDCHAR
STARTCHAR BRAILLE PATTERN DOTS-3467
ENCODING 10348
SWIDTH 500 0
DWIDTH 6 0
BBX 6 12 0 -3
BITMAP
00
08
00
00
00
00
00
48
00
00
40
00
ENDCHAR
STARTCHAR BRAILLE PATTERN DOTS-13467
ENCODING 10349
SWIDTH 500 0
DWIDTH 6 0
BBX 6 12 0 -3
BITMAP
00
48
00
00
00
00
00
48
00
00
40
00
ENDCHAR
STARTCHAR BRAILLE PATTERN DOTS-23467
ENCODING 10350
SWIDTH 500 0
DWIDTH 6 0
BBX 6 12 0 -3
BITMAP
00
08
00
00
40
00
00
48
00
00
40
00
ENDCHAR
STARTCHAR BRAILLE PATTERN DOTS-123467
ENCODING 10351
SWIDTH 500 0
DWIDTH 6 0
BBX 6 12 0 -3
BITMAP
00
48
00
00
40
00
00
48
00
00
40
00
ENDCHAR
STARTCHAR BRAILLE PATTERN DOTS-567
ENCODING 10352
SWIDTH 500 0
DWIDTH 6 0
BBX 6 12 0 -3
BITMAP
00
00
00
00
08
00
00
08
00
00
40
00
ENDCHAR
STARTCHAR BRAILLE PATTERN DOTS-1567
ENCODING 10353
SWIDTH 500 0
DWIDTH 6 0
BBX 6 12 0 -3
BITMAP
00
40
00
00
08
00
00
08
00
00
40
00
ENDCHAR
STARTCHAR BRAILLE PATTERN DOTS-2567
ENCODING 10354
SWIDTH 500 0
DWIDTH 6 0
BBX 6 12 0 -3
BITMAP
00
00
00
00
48
00
00
08
00
00
40
00
ENDCHAR
STARTCHAR BRAILLE PATTERN DOTS-12567
ENCODING 10355
SWIDTH 500 0
DWIDTH 6 0
BBX 6 12 0 -3
BITMAP
00
40
00
00
48
00
00
08
00
00
40
00
ENDCHAR
STARTCHAR BRAILLE PATTERN DOTS-3567
ENCODING 10356
SWIDTH 500 0
DWIDTH 6 0
BBX 6 12 0 -3
BITMAP
00
00
00
00
08
00
00
48
00
00
40
00
ENDCHAR
STARTCHAR BRAILLE PATTERN DOTS-13567
ENCODING 10357
SWIDTH 500 0
DWIDTH 6 0
BBX 6 12 0 -3
BITMAP
00
40
00
00
08
00
00
48
00
00
40
00
ENDCHAR
STARTCHAR BRAILLE PATTERN DOTS-23567
ENCODING 10358
SWIDTH 500 0
DWIDTH 6 0
BBX 6 12 0 -3
BITMAP
00
00
00
00
48
00
00
48
00
00
40
00
ENDCHAR
STARTCHAR BRAILLE PATTERN DOTS-123567
ENCODING 10359
SWIDTH 500 0
DWIDTH 6 0
BBX 6 12 0 -3
BITMAP
00
40
00
00
48
00
00
48
00
00
40
00
ENDCHAR
STARTCHAR BRAILLE PATTERN DOTS-4567
ENCODING 10360
SWIDTH 500 0
DWIDTH 6 0
BBX 6 12 0 -3
BITMAP
00
08
00
00
08
00
00
08
00
00
40
00
ENDCHAR
STARTCHAR BRAILLE PATTERN DOTS-14567
ENCODING 10361
SWIDTH 500 0
DWIDTH 6 0
BBX 6 12 0 -3
BITMAP
00
48
00
00
08
00
00
08
00
00
40
00
ENDCHAR
STARTCHAR BRAILLE PATTERN DOTS-24567
ENCODING 10362
SWIDTH 500 0
DWIDTH 6 0
BBX 6 12 0 -3
BITMAP
00
08
00
00
48
00
00
08
00
00
40
00
ENDCHAR
STARTCHAR BRAILLE PATTERN DOTS-124567
ENCODING 10363
SWIDTH 500 0
DWIDTH 6 0
BBX 6 12 0 -3
BITMAP
00
48
00
00
48
00
00
08
00
00
40
00
ENDCHAR
STARTCHAR BRAILLE PATTERN DOTS-34567
ENCODING 10364
SWIDTH 500 0
DWIDTH 6 0
BBX 6 12 0 -3
BITMAP
00
08
00
00
08
00
00
48
00
00
40
00
ENDCHAR
STARTCHAR BRAILLE PATTERN DOTS-134567
ENCODING 10365
SWIDTH 500 0
DWIDTH 6 0
BBX 6 12 0 -3
BITMAP
00
48
00
00
08
00
00
48
00
00
40
00
ENDCHAR
STARTCHAR BRAILLE PATTERN DOTS-234567
ENCODING 10366
SWIDTH 500 0
DWIDTH 6 0
BBX 6 12 0 -3
BITMAP
00
08
00
00
48
00
00
48
00
00
40
00
ENDCHAR
STARTCHAR BRAILLE PATTERN DOTS-1234567
ENCODING 10367
SWIDTH 500 0
DWIDTH 6 0
BBX 6 12 0 -3
BITMAP
00
48
00
00
48
00
00
48
00
00
40
00
ENDCHAR
STARTCHAR BRAILLE PATTERN DOTS-8
ENCODING 10368
SWIDTH 500 0
DWIDTH 6 0
BBX 6 12 0 -3
BITMAP
00
00
00
00
00
00
00
00
00
00
08
00
ENDCHAR
STARTCHAR BRAILLE PATTERN DOTS-18
ENCODING 10369
SWIDTH 500 0
DWIDTH 6 0
BBX 6 12 0 -3
BITMAP
00
40
00
00
00
00
00
00
00
00
08
00
ENDCHAR
STARTCHAR BRAILLE PATTERN DOTS-28
ENCODING 10370
SWIDTH 500 0
DWIDTH 6 0
BBX 6 12 0 -3
BITMAP
00
00
00
00
40
00
00
00
00
00
08
00
ENDCHAR
STARTCHAR BRAILLE PATTERN DOTS-128
ENCODING 10371
SWIDTH 500 0
DWIDTH 6 0
BBX 6 12 0 -3
BITMAP
00
40
00
00
40
00
00
00
00
00
08
00
ENDCHAR
STARTCHAR BRAILLE PATTERN DOTS-38
ENCODING 10372
SWIDTH 500 0
DWIDTH 6 0
BBX 6 12 0 -3
BITMAP
00
00
00
00
00
00
00
40
00
00
08
00
ENDCHAR
STARTCHAR BRAILLE PATTERN DOTS-138
ENCODING 10373
SWIDTH 500 0
DWIDTH 6 0
BBX 6 12 0 -3
BITMAP
00
40
00
00
00
00
00
40
00
00
08
00
ENDCHAR
STARTCHAR BRAILLE PATTERN DOTS-238
ENCODING 10374
SWIDTH 500 0
DWIDTH 6 0
BBX 6 12 0 -3
BITMAP
00
00
00
00
40
00
00
40
00
00
08
00
ENDCHAR
STARTCHAR BRAILLE PATTERN DOTS-1238
ENCODING 10375
SWIDTH 500 0
DWIDTH 6 0
BBX 6 12 0 -3
BITMAP
00
40
00
00
40
00
00
40
00
00
08
00
ENDCHAR
STARTCHAR BRAILLE PATTERN DOTS-48
ENCODING 10376
SWIDTH 500 0
DWIDTH 6 0
BBX 6 12 0 -3
BITMAP
00
08
00
00
00
00
00
00
00
00
08
00
ENDCHAR
STARTCHAR BRAILLE PATTERN DOTS-148
ENCODING 10377
SWIDTH 500 0
DWIDTH 6 0
BBX 6 12 0 -3
BITMAP
00
48
00
00
00
00
00
00
00
00
08
00
ENDCHAR
STARTCHAR BRAILLE PATTERN DOTS-248
ENCODING 10378
SWIDTH 500 0
DWIDTH 6 0
BBX 6 12 0 -3
BITMAP
00
08
00
00
40
00
00
00
00
00
08
00
ENDCHAR
STARTCHAR BRAILLE PATTERN DOTS-1248
ENCODING 10379
SWIDTH 500 0
DWIDTH 6 0
BBX 6 12 0 -3
BITMAP
00
48
00
00
40
00
00
00
00
00
08
00
ENDCHAR
STARTCHAR BRAILLE PATTERN DOTS-348
ENCODING 10380
SWIDTH 500 0
DWIDTH 6 0
BBX 6 12 0 -3
BITMAP
00
08
00
00
00
00
00
40
00
00
08
00
ENDCHAR
STARTCHAR BRAILLE PATTERN DOTS-1348
ENCODING 10381
SWIDTH 500 0
DWIDTH 6 0
BBX 6 12 0 -3
BITMAP
00
48
00
00
00
00
00
40
00
00
08
00
ENDCHAR
STARTCHAR BRAILLE PATTERN DOTS-2348
ENCODING 10382
SWIDTH 500 0
DWIDTH 6 0
BBX 6 12 0 -3
BITMAP
00
08
00
00
40
00
00
40
00
00
08
00
ENDCHAR
STARTCHAR BRAILLE PATTERN DOTS-12348
ENCODING 10383
SWIDTH 500 0
DWIDTH 6 0
BBX 6 12 0 -3
BITMAP
00
48
00
00
40
00
00
40
00
00
08
00
ENDCHAR
STARTCHAR BRAILLE PATTERN DOTS-58
ENCODING 10384
SWIDTH 500 0
DWIDTH 6 0
BBX 6 12 0 -3
BITMAP
00
00
00
00
08
00
00
00
00
00
08
00
ENDCHAR
STARTCHAR BRAILLE PATTERN DOTS-158
ENCODING 10385
SWIDTH 500 0
DWIDTH 6 0
BBX 6 12 0 -3
BITMAP
00
40
00
00
08
00
00
00
00
00
08
00
ENDCHAR
STARTCHAR BRAILLE PATTERN DOTS-258
ENCODING 10386
SWIDTH 500 0
DWIDTH 6 0
BBX 6 12 0 -3
BITMAP
00
00
00
00
48
00
00
00
00
00
08
00
ENDCHAR
STARTCHAR BRAILLE PATTERN DOTS-1258
ENCODING 10387
SWIDTH 500 0
DWIDTH 6 0
BBX 6 12 0 -3
BITMAP
00
40
00
00
48
00
00
00
00
00
08
00
ENDCHAR
STARTCHAR BRAILLE PATTERN DOTS-358
ENCODING 10388
SWIDTH 500 0
DWIDTH 6 0
BBX 6 12 0 -3
BITMAP
00
00
00
00
08
00
00
40
00
00
08
00
ENDCHAR
STARTCHAR BRAILLE PATTERN DOTS-1358
ENCODING 10389
SWIDTH 500 0
DWIDTH 6 0
BBX 6 12 0 -3
BITMAP
00
40
00
00
08
00
00
40
00
00
08
00
ENDCHAR
STARTCHAR BRAILLE PATTERN DOTS-2358
ENCODING 10390
SWIDTH 500 0
DWIDTH 6 0
BBX 6 12 0 -3
BITMAP
00
00
00
00
48
00
00
40
00
00
08
00
ENDCHAR
STARTCHAR BRAILLE PATTERN DOTS-12358
ENCODING 10391
SWIDTH 500 0
DWIDTH 6 0
BBX 6 12 0 -3
BITMAP
00
40
00
00
48
00
00
40
00
00
08
00
ENDCHAR
STARTCHAR BRAILLE PATTERN DOTS-458
ENCODING 10392
SWIDTH 500 0
DWIDTH 6 0
BBX 6 12 0 -3
BITMAP
00
08
00
00
08
00
00
00
00
00
08
00
ENDCHAR
STARTCHAR BRAILLE PATTERN DOTS-1458
ENCODING 10393
SWIDTH 500 0
DWIDTH 6 0
BBX 6 12 0 -3
BITMAP
00
48
00
00
08
00
00
00
00
00
08
00
ENDCHAR
STARTCHAR BRAILLE PATTERN DOTS-2458
ENCODING 10394
SWIDTH 500 0
DWIDTH 6 0
BBX 6 12 0 -3
BITMAP
00
08
00
00
48
00
00
00
00
00
08
00
ENDCHAR
STARTCHAR BRAILLE PATTERN DOTS-12458
ENCODING 10395
SWIDTH 500 0
DWIDTH 6 0
BBX 6 12 0 -3
BITMAP
00
48
00
00
48
00
00
00
00
00
08
00
ENDCHAR
STARTCHAR BRAILLE PATTERN DOTS-3458
ENCODING 10396
SWIDTH 500 0
DWIDTH 6 0
BBX 6 12 0 -3
BITMAP
00
08
00
00
08
00
00
40
00
00
08
00
ENDCHAR
STARTCHAR BRAILLE PATTERN DOTS-13458
ENCODING 10397
SWIDTH 500 0
DWIDTH 6 0
BBX 6 12 0 -3
BITMAP
00
48
00
00
08
00
00
40
00
00
08
00
ENDCHAR
STARTCHAR BRAILLE PATTERN DOTS-23458
ENCODING 10398
SWIDTH 500 0
DWIDTH 6 0
BBX 6 12 0 -3
BITMAP
00
08
00
00
48
00
00
40
00
00
08
00
ENDCHAR
STARTCHAR BRAILLE PATTERN DOTS-123458
ENCODING 10399
SWIDTH 500 0
DWIDTH 6 0
BBX 6 12 0 -3
BITMAP
00
48
00
00
48
00
00
40
00
00
08
00
ENDCHAR
STARTCHAR BRAILLE PATTERN DOTS-68
ENCODING 10400
SWIDTH 500 0
DWIDTH 6 0
BBX 6 12 0 -3
BITMAP
00
00
00
00
00
00
00
08
00
00
08
00
ENDCHAR
STARTCHAR BRAILLE PATTERN DOTS-168
ENCODING 10401
SWIDTH 500 0
DWIDTH 6 0
BBX 6 12 0 -3
BITMAP
00
40
00
00
00
00
00
08
00
00
08
00
ENDCHAR
STARTCHAR BRAILLE PATTERN DOTS-268
ENCODING 10402
SWIDTH 500 0
DWIDTH 6 0
BBX 6 12 0 -3
BITMAP
00
00
00
00
40
00
00
08
00
00
08
00
ENDCHAR
STARTCHAR BRAILLE PATTERN DOTS-1268
ENCODING 10403
SWIDTH 500 0
DWIDTH 6 0
BBX 6 12 0 -3
BITMAP
00
40
00
00
40
00
00
08
00
00
08
00
ENDCHAR
STARTCHAR BRAILLE PATTERN DOTS-368
ENCODING 10404
SWIDTH 500 0
DWIDTH 6 0
BBX 6 12 0 -3
BITMAP
00
00
00
00
00
00
00
48
00
00
08
00
ENDCHAR
STARTCHAR BRAILLE PATTERN DOTS-1368
ENCODING 10405
SWIDTH 500 0
DWIDTH 6 0
BBX 6 12 0 -3
BITMAP
00
40
00
00
00
00
00
48
00
00
08
00
ENDCHAR
STARTCHAR BRAILLE PATTERN DOTS-2368
ENCODING 10406
SWIDTH 500 0
DWIDTH 6 0
BBX 6 12 0 -3
BITMAP
00
00
00
00
40
00
00
48
00
00
08
00
ENDCHAR
STARTCHAR BRAILLE PATTERN DOTS-12368
ENCODING 10407
SWIDTH 500 0
DWIDTH 6 0
BBX 6 12 0 -3
BITMAP
00
40
00
00
40
00
00
48
00
00
08
00
ENDCHAR
STARTCHAR BRAILLE PATTERN DOTS-468
ENCODING 10408
SWIDTH 500 0
DWIDTH 6 0
BBX 6 12 0 -3
BITMAP
00
08
00
00
00
00
00
08
00
00
08
00
ENDCHAR
STARTCHAR BRAILLE PATTERN DOTS-1468
ENCODING 10409
SWIDTH 500 0
DWIDTH 6 0
BBX 6 12 0 -3
BITMAP
00
48
00
00
00
00
00
08
00
00
08
00
ENDCHAR
STARTCHAR BRAILLE PATTERN DOTS-2468
ENCODING 10410
SWIDTH 500 0
DWIDTH 6 0
BBX 6 12 0 -3
BITMAP
00
08
00
00
40
00
00
08
00
00
08
00
ENDCHAR
STARTCHAR BRAILLE PATTERN DOTS-12468
ENCODING 10411
SWIDTH 500 0
DWIDTH 6 0
BBX 6 12 0 -3
BITMAP
00
48
00
00
40
00
00
08
00
00
08
00
ENDCHAR
STARTCHAR BRAILLE PATTERN DOTS-3468
ENCODING 10412
SWIDTH 500 0
DWIDTH 6 0
BBX 6 12 0 -3
BITMAP
00
08
00
00
00
00
00
48
00
00
08
00
ENDCHAR
STARTCHAR BRAILLE PATTERN DOTS-13468
ENCODING 10413
SWIDTH 500 0
DWIDTH 6 0
BBX 6 12 0 -3
BITMAP
00
48
00
00
00
00
00
48
00
00
08
00
ENDCHAR
STARTCHAR BRAILLE PATTERN DOTS-23468
ENCODING 10414
SWIDTH 500 0
DWIDTH 6 0
BBX 6 12 0 -3
BITMAP
00
08
00
00
40
00
00
48
00
00
08
00
ENDCHAR
STARTCHAR BRAILLE PATTERN DOTS-123468
ENCODING 10415
SWIDTH 500 0
DWIDTH 6 0
BBX 6 12 0 -3
BITMAP
00
48
00
00
40
00
00
48
00
00
08
00
ENDCHAR
STARTCHAR BRAILLE PATTERN DOTS-568
ENCODING 10416
SWIDTH 500 0
DWIDTH 6 0
BBX 6 12 0 -3
BITMAP
00
00
00
00
08
00
00
08
00
00
08
00
ENDCHAR
STARTCHAR BRAILLE PATTERN DOTS-1568
ENCODING 10417
SWIDTH 500 0
DWIDTH 6 0
BBX 6 12 0 -3
BITMAP
00
40
00
00
08
00
00
08
00
00
08
00
ENDCHAR
STARTCHAR BRAILLE PATTERN DOTS-2568
ENCODING 10418
SWIDTH 500 0
DWIDTH 6 0
BBX 6 12 0 -3
BITMAP
00
00
00
00
48
00
00
08
00
00
08
00
ENDCHAR
STARTCHAR BRAILLE PATTERN DOTS-12568
ENCODING 10419
SWIDTH 500 0
DWIDTH 6 0
BBX 6 12 0 -3
BITMAP
00
40
00
00
48
00
00
08
00
00
08
00
ENDCHAR
STARTCHAR BRAILLE PATTERN DOTS-3568
ENCODING 10420
SWIDTH 500 0
DWIDTH 6 0
BBX 6 12 0 -3
BITMAP
00
00
00
00
08
00
00
48
00
00
08
00
ENDCHAR
STARTCHAR BRAILLE PATTERN DOTS-13568
ENCODING 10421
SWIDTH 500 0
DWIDTH 6 0
BBX 6 12 0 -3
BITMAP
00
40
00
00
08
00
00
48
00
00
08
00
ENDCHAR
STARTCHAR BRAILLE PATTERN DOTS-23568
ENCODING 10422
SWIDTH 500 0
DWIDTH 6 0
BBX 6 12 0 -3
BITMAP
00
00
00
00
48
00
00
48
00
00
08
00
ENDCHAR
STARTCHAR BRAILLE PATTERN DOTS-123568
ENCODING 10423
SWIDTH 500 0
DWIDTH 6 0
BBX 6 12 0 -3
BITMAP
00
40
00
00
48
00
00
48
00
00
08
00
ENDCHAR
STARTCHAR BRAILLE PATTERN DOTS-4568
ENCODING 10424
SWIDTH 500 0
DWIDTH 6 0
BBX 6 12 0 -3
BITMAP
00
08
00
00
08
00
00
08
00
00
08
00
ENDCHAR
STARTCHAR BRAILLE PATTERN DOTS-14568
ENCODING 10425
SWIDTH 500 0
DWIDTH 6 0
BBX 6 12 0 -3
BITMAP
00
48
00
00
08
00
00
08
00
00
08
00
ENDCHAR
STARTCHAR BRAILLE PATTERN DOTS-24568
ENCODING 10426
SWIDTH 500 0
DWIDTH 6 0
BBX 6 12 0 -3
BITMAP
00
08
00
00
48
00
00
08
00
00
08
00
ENDCHAR
STARTCHAR BRAILLE PATTERN DOTS-124568
ENCODING 10427
SWIDTH 500 0
DWIDTH 6 0
BBX 6 12 0 -3
BITMAP
00
48
00
00
48
00
00
08
00
00
08
00
ENDCHAR
STARTCHAR BRAILLE PATTERN DOTS-34568
ENCODING 10428
SWIDTH 500 0
DWIDTH 6 0
BBX 6 12 0 -3
BITMAP
00
08
00
00
08
00
00
48
00
00
08
00
ENDCHAR
STARTCHAR BRAILLE PATTERN DOTS-134568
ENCODING 10429
SWIDTH 500 0
DWIDTH 6 0
BBX 6 12 0 -3
BITMAP
00
48
00
00
08
00
00
48
00
00
08
00
ENDCHAR
STARTCHAR BRAILLE PATTERN DOTS-234568
ENCODING 10430
SWIDTH 500 0
DWIDTH 6 0
BBX 6 12 0 -3
BITMAP
00
08
00
00
48
00
00
48
00
00
08
00
ENDCHAR
STARTCHAR BRAILLE PATTERN DOTS-1234568
ENCODING 10431
SWIDTH 500 0
DWIDTH 6 0
BBX 6 12 0 -3
BITMAP
00
48
00
00
48
00
00
48
00
00
08
00
ENDCHAR
STARTCHAR BRAILLE PATTERN DOTS-78
ENCODING 10432
SWIDTH 500 0
DWIDTH 6 0
BBX 6 12 0 -3
BITMAP
00
00
00
00
00
00
00
00
00
00
48
00
ENDCHAR
STARTCHAR BRAILLE PATTERN DOTS-178
ENCODING 10433
SWIDTH 500 0
DWIDTH 6 0
BBX 6 12 0 -3
BITMAP
00
40
00
00
00
00
00
00
00
00
48
00
ENDCHAR
STARTCHAR BRAILLE PATTERN DOTS-278
ENCODING 10434
SWIDTH 500 0
DWIDTH 6 0
BBX 6 12 0 -3
BITMAP
00
00
00
00
40
00
00
00
00
00
48
00
ENDCHAR
STARTCHAR BRAILLE PATTERN DOTS-1278
ENCODING 10435
SWIDTH 500 0
DWIDTH 6 0
BBX 6 12 0 -3
BITMAP
00
40
00
00
40
00
00
00
00
00
48
00
ENDCHAR
STARTCHAR BRAILLE PATTERN DOTS-378
ENCODING 10436
SWIDTH 500 0
DWIDTH 6 0
BBX 6 12 0 -3
BITMAP
00
00
00
00
00
00
00
40
00
00
48
00
ENDCHAR
STARTCHAR BRAILLE PATTERN DOTS-1378
ENCODING 10437
SWIDTH 500 0
DWIDTH 6 0
BBX 6 12 0 -3
BITMAP
00
40
00
00
00
00
00
40
00
00
48
00
ENDCHAR
STARTCHAR BRAILLE PATTERN DOTS-2378
ENCODING 10438
SWIDTH 500 0
DWIDTH 6 0
BBX 6 12 0 -3
BITMAP
00
00
00
00
40
00
00
40
00
00
48
00
ENDCHAR
STARTCHAR BRAILLE PATTERN DOTS-12378
ENCODING 10439
SWIDTH 500 0
DWIDTH 6 0
BBX 6 12 0 -3
BITMAP
00
40
00
00
40
00
00
40
00
00
48
00
ENDCHAR
STARTCHAR BRAILLE PATTERN DOTS-478
ENCODING 10440
SWIDTH 500 0
DWIDTH 6 0
BBX 6 12 0 -3
BITMAP
00
08
00
00
00
00
00
00
00
00
48
00
ENDCHAR
STARTCHAR BRAILLE PATTERN DOTS-1478
ENCODING 10441
SWIDTH 500 0
DWIDTH 6 0
BBX 6 12 0 -3
BITMAP
00
48
00
00
00
00
00
00
00
00
48
00
ENDCHAR
STARTCHAR BRAILLE PATTERN DOTS-2478
ENCODING 10442
SWIDTH 500 0
DWIDTH 6 0
BBX 6 12 0 -3
BITMAP
00
08
00
00
40
00
00
00
00
00
48
00
ENDCHAR
STARTCHAR BRAILLE PATTERN DOTS-12478
ENCODING 10443
SWIDTH 500 0
DWIDTH 6 0
BBX 6 12 0 -3
BITMAP
00
48
00
00
40
00
00
00
00
00
48
00
ENDCHAR
STARTCHAR BRAILLE PATTERN DOTS-3478
ENCODING 10444
SWIDTH 500 0
DWIDTH 6 0
BBX 6 12 0 -3
BITMAP
00
08
00
00
00
00
00
40
00
00
48
00
ENDCHAR
STARTCHAR BRAILLE PATTERN DOTS-13478
ENCODING 10445
SWIDTH 500 0
DWIDTH 6 0
BBX 6 12 0 -3
BITMAP
00
48
00
00
00
00
00
40
00
00
48
00
ENDCHAR
STARTCHAR BRAILLE PATTERN DOTS-23478
ENCODING 10446
SWIDTH 500 0
DWIDTH 6 0
BBX 6 12 0 -3
BITMAP
00
08
00
00
40
00
00
40
00
00
48
00
ENDCHAR
STARTCHAR BRAILLE PATTERN DOTS-123478
ENCODING 10447
SWIDTH 500 0
DWIDTH 6 0
BBX 6 12 0 -3
BITMAP
00
48
00
00
40
00
00
40
00
00
48
00
ENDCHAR
STARTCHAR BRAILLE PATTERN DOTS-578
ENCODING 10448
SWIDTH 500 0
DWIDTH 6 0
BBX 6 12 0 -3
BITMAP
00
00
00
00
08
00
00
00
00
00
48
00
ENDCHAR
STARTCHAR BRAILLE PATTERN DOTS-1578
ENCODING 10449
SWIDTH 500 0
DWIDTH 6 0
BBX 6 12 0 -3
BITMAP
00
40
00
00
08
00
00
00
00
00
48
00
ENDCHAR
STARTCHAR BRAILLE PATTERN DOTS-2578
ENCODING 10450
SWIDTH 500 0
DWIDTH 6 0
BBX 6 12 0 -3
BITMAP
00
00
00
00
48
00
00
00
00
00
48
00
ENDCHAR
STARTCHAR BRAILLE PATTERN DOTS-12578
ENCODING 10451
SWIDTH 500 0
DWIDTH 6 0
BBX 6 12 0 -3
BITMAP
00
40
00
00
48
00
00
00
00
00
48
00
ENDCHAR
STARTCHAR BRAILLE PATTERN DOTS-3578
ENCODING 10452
SWIDTH 500 0
DWIDTH 6 0
BBX 6 12 0 -3
BITMAP
00
00
00
00
08
00
00
40
00
00
48
00
ENDCHAR
STARTCHAR BRAILLE PATTERN DOTS-13578
ENCODING 10453
SWIDTH 500 0
DWIDTH 6 0
BBX 6 12 0 -3
BITMAP
00
40
00
00
08
00
00
40
00
00
48
00
ENDCHAR
STARTCHAR BRAILLE PATTERN DOTS-23578
ENCODING 10454
SWIDTH 500 0
DWIDTH 6 0
BBX 6 12 0 -3
BITMAP
00
00
00
00
48
00
00
40
00
00
48
00
ENDCHAR
STARTCHAR BRAILLE PATTERN DOTS-123578
ENCODING 10455
SWIDTH 500 0
DWIDTH 6 0
BBX 6 12 0 -3
BITMAP
00
40
00
00
48
00
00
40
00
00
48
00
ENDCHAR
STARTCHAR BRAILLE PATTERN DOTS-4578
ENCODING 10456
SWIDTH 500 0
DWIDTH 6 0
BBX 6 12 0 -3
BITMAP
00
08
00
00
08
00
00
00
00
00
48
00
ENDCHAR
STARTCHAR BRAILLE PATTERN DOTS-14578
ENCODING 10457
SWIDTH 500 0
DWIDTH 6 0
BBX 6 12 0 -3
BITMAP
00
48
00
00
08
00
00
00
00
00
48
00
ENDCHAR
STARTCHAR BRAILLE PATTERN DOTS-24578
ENCODING 10458
SWIDTH 500 0
DWIDTH 6 0
BBX 6 12 0 -3
BITMAP
00
08
00
00
48
00
00
00
00
00
48
00
ENDCHAR
STARTCHAR BRAILLE PATTERN DOTS-124578
ENCODING 10459
SWIDTH 500 0
DWIDTH 6 0
BBX 6 12 0 -3
BITMAP
00
48
00
00
48
00
00
00
00
00
48
00
ENDCHAR
STARTCHAR BRAILLE PATTERN DOTS-34578
ENCODING 10460
SWIDTH 500 0
DWIDTH 6 0
BBX 6 12 0 -3
BITMAP
00
08
00
00
08
00
00
40
00
00
48
00
ENDCHAR
STARTCHAR BRAILLE PATTERN DOTS-134578
ENCODING 10461
SWIDTH 500 0
DWIDTH 6 0
BBX 6 12 0 -3
BITMAP
00
48
00
00
08
00
00
40
00
00
48
00
ENDCHAR
STARTCHAR BRAILLE PATTERN DOTS-234578
ENCODING 10462
SWIDTH 500 0
DWIDTH 6 0
BBX 6 12 0 -3
BITMAP
00
08
00
00
48
00
00
40
00
00
48
00
ENDCHAR
STARTCHAR BRAILLE PATTERN DOTS-1234578
ENCODING 10463
SWIDTH 500 0
DWIDTH 6 0
BBX 6 12 0 -3
BITMAP
00
48
00
00
48
00
00
40
00
00
48
00
ENDCHAR
STARTCHAR BRAILLE PATTERN DOTS-678
ENCODING 10464
SWIDTH 500 0
DWIDTH 6 0
BBX 6 12 0 -3
BITMAP
00
00
00
00
00
00
00
08
00
00
48
00
ENDCHAR
STARTCHAR BRAILLE PATTERN DOTS-1678
ENCODING 10465
SWIDTH 500 0
DWIDTH 6 0
BBX 6 12 0 -3
BITMAP
00
40
00
00
00
00
00
08
00
00
48
00
ENDCHAR
STARTCHAR BRAILLE PATTERN DOTS-2678
ENCODING 10466
SWIDTH 500 0
DWIDTH 6 0
BBX 6 12 0 -3
BITMAP
00
00
00
00
40
00
00
08
00
00
48
00
ENDCHAR
STARTCHAR BRAILLE PATTERN DOTS-12678
ENCODING 10467
SWIDTH 500 0
DWIDTH 6 0
BBX 6 12 0 -3
BITMAP
00
40
00
00
40
00
00
08
00
00
48
00
ENDCHAR
STARTCHAR BRAILLE PATTERN DOTS-3678
ENCODING 10468
SWIDTH 500 0
DWIDTH 6 0
BBX 6 12 0 -3
BITMAP
00
00
00
00
00
00
00
48
00
00
48
00
ENDCHAR
STARTCHAR BRAILLE PATTERN DOTS-13678
ENCODING 10469
SWIDTH 500 0
DWIDTH 6 0
BBX 6 12 0 -3
BITMAP
00
40
00
00
00
00
00
48
00
00
48
00
ENDCHAR
STARTCHAR BRAILLE PATTERN DOTS-23678
ENCODING 10470
SWIDTH 500 0
DWIDTH 6 0
BBX 6 12 0 -3
BITMAP
00
00
00
00
40
00
00
48
00
00
48
00
ENDCHAR
STARTCHAR BRAILLE PATTERN DOTS-123678
ENCODING 10471
SWIDTH 500 0
DWIDTH 6 0
BBX 6 12 0 -3
BITMAP
00
40
00
00
40
00
00
48
00
00
48
00
ENDCHAR
STARTCHAR BRAILLE PATTERN DOTS-4678
ENCODING 10472
SWIDTH 500 0
DWIDTH 6 0
BBX 6 12 0 -3
BITMAP
00
08
00
00
00
00
00
08
00
00
48
00
ENDCHAR
STARTCHAR BRAILLE PATTERN DOTS-14678
ENCODING 10473
SWIDTH 500 0
DWIDTH 6 0
BBX 6 12 0 -3
BITMAP
00
48
00
00
00
00
00
08
00
00
48
00
ENDCHAR
STARTCHAR BRAILLE PATTERN DOTS-24678
ENCODING 10474
SWIDTH 500 0
DWIDTH 6 0
BBX 6 12 0 -3
BITMAP
00
08
00
00
40
00
00
08
00
00
48
00
ENDCHAR
STARTCHAR BRAILLE PATTERN DOTS-124678
ENCODING 10475
SWIDTH 500 0
DWIDTH 6 0
BBX 6 12 0 -3
BITMAP
00
48
00
00
40
00
00
08
00
00
48
00
ENDCHAR
STARTCHAR BRAILLE PATTERN DOTS-34678
ENCODING 10476
SWIDTH 500 0
DWIDTH 6 0
BBX 6 12 0 -3
BITMAP
00
08
00
00
00
00
00
48
00
00
48
00
ENDCHAR
STARTCHAR BRAILLE PATTERN DOTS-134678
ENCODING 10477
SWIDTH 500 0
DWIDTH 6 0
BBX 6 12 0 -3
BITMAP
00
48
00
00
00
00
00
48
00
00
48
00
ENDCHAR
STARTCHAR BRAILLE PATTERN DOTS-234678
ENCODING 10478
SWIDTH 500 0
DWIDTH 6 0
BBX 6 12 0 -3
BITMAP
00
08
00
00
40
00
00
48
00
00
48
00
ENDCHAR
STARTCHAR BRAILLE PATTERN DOTS-1234678
ENCODING 10479
SWIDTH 500 0
DWIDTH 6 0
BBX 6 12 0 -3
BITMAP
00
48
00
00
40
00
00
48
00
00
48
00
ENDCHAR
STARTCHAR BRAILLE PATTERN DOTS-5678
ENCODING 10480
SWIDTH 500 0
DWIDTH 6 0
BBX 6 12 0 -3
BITMAP
00
00
00
00
08
00
00
08
00
00
48
00
ENDCHAR
STARTCHAR BRAILLE PATTERN DOTS-15678
ENCODING 10481
SWIDTH 500 0
DWIDTH 6 0
BBX 6 12 0 -3
BITMAP
00
40
00
00
08
00
00
08
00
00
48
00
ENDCHAR
STARTCHAR BRAILLE PATTERN DOTS-25678
ENCODING 10482
SWIDTH 500 0
DWIDTH 6 0
BBX 6 12 0 -3
BITMAP
00
00
00
00
48
00
00
08
00
00
48
00
ENDCHAR
STARTCHAR BRAILLE PATTERN DOTS-125678
ENCODING 10483
SWIDTH 500 0
DWIDTH 6 0
BBX 6 12 0 -3
BITMAP
00
40
00
00
48
00
00
08
00
00
48
00
ENDCHAR
STARTCHAR BRAILLE PATTERN DOTS-35678
ENCODING 10484
SWIDTH 500 0
DWIDTH 6 0
BBX 6 12 0 -3
BITMAP
00
00
00
00
08
00
00
48
00
00
48
00
ENDCHAR
STARTCHAR BRAILLE PATTERN DOTS-135678
ENCODING 10485
SWIDTH 500 0
DWIDTH 6 0
BBX 6 12 0 -3
BITMAP
00
40
00
00
08
00
00
48
00
00
48
00
ENDCHAR
STARTCHAR BRAILLE PATTERN DOTS-235678
ENCODING 10486
SWIDTH 500 0
DWIDTH 6 0
BBX 6 12 0 -3
BITMAP
00
00
00
00
48
00
00
48
00
00
48
00
ENDCHAR
STARTCHAR BRAILLE PATTERN DOTS-1235678
ENCODING 10487
SWIDTH 500 0
DWIDTH 6 0
BBX 6 12 0 -3
BITMAP
00
40
00
00
48
00
00
48
00
00
48
00
ENDCHAR
STARTCHAR BRAILLE PATTERN DOTS-45678
ENCODING 10488
SWIDTH 500 0
DWIDTH 6 0
BBX 6 12 0 -3
BITMAP
00
08
00
00
08
00
00
08
00
00
48
00
ENDCHAR
STARTCHAR BRAILLE PATTERN DOTS-145678
ENCODING 10489
SWIDTH 500 0
DWIDTH 6 0
BBX 6 12 0 -3
BITMAP
00
48
00
00
08
00
00
08
00
00
48
00
ENDCHAR
STARTCHAR BRAILLE PATTERN DOTS-245678
ENCODING 10490
SWIDTH 500 0
DWIDTH 6 0
BBX 6 12 0 -3
BITMAP
00
08
00
00
48
00
00
08
00
00
48
00
ENDCHAR
STARTCHAR BRAILLE PATTERN DOTS-1245678
ENCODING 10491
SWIDTH 500 0
DWIDTH 6 0
BBX 6 12 0 -3
BITMAP
00
48
00
00
48
00
00
08
00
00
48
00
ENDCHAR
STARTCHAR BRAILLE PATTERN DOTS-345678
ENCODING 10492
SWIDTH 500 0
DWIDTH 6 0
BBX 6 12 0 -3
BITMAP
00
08
00
00
08
00
00
48
00
00
48
00
ENDCHAR
STARTCHAR BRAILLE PATTERN DOTS-1345678
ENCODING 10493
SWIDTH 500 0
DWIDTH 6 0
BBX 6 12 0 -3
BITMAP
00
48
00
00
08
00
00
48
00
00
48
00
ENDCHAR
STARTCHAR BRAILLE PATTERN DOTS-2345678
ENCODING 10494
SWIDTH 500 0
DWIDTH 6 0
BBX 6 12 0 -3
BITMAP
00
08
00
00
48
00
00
48
00
00
48
00
ENDCHAR
STARTCHAR BRAILLE PATTERN DOTS-12345678
ENCODING 10495
SWIDTH 500 0
DWIDTH 6 0
BBX 6 12 0 -3
BITMAP
00
48
00
00
48
00
00
48
00
00
48
00
ENDCHAR
STARTCHAR char57506
ENCODING 57506
SWIDTH 500 0
DWIDTH 6 0
BBX 6 12 0 -3
BITMAP
00
00
20
50
50
F8
D8
D8
F8
F8
00
00
ENDCHAR
STARTCHAR char57520
ENCODING 57520
SWIDTH 500 0
DWIDTH 6 0
BBX 6 12 0 -3
BITMAP
80
C0
E0
F0
F8
FC
FC
F8
F0
E0
C0
80
ENDCHAR
STARTCHAR char57521
ENCODING 57521
SWIDTH 500 0
DWIDTH 6 0
BBX 6 12 0 -3
BITMAP
80
40
20
10
08
04
04
08
10
20
40
80
ENDCHAR
STARTCHAR char57522
ENCODING 57522
SWIDTH 500 0
DWIDTH 6 0
BBX 6 12 0 -3
BITMAP
04
0C
1C
3C
7C
FC
FC
7C
3C
1C
0C
04
ENDCHAR
STARTCHAR char57523
ENCODING 57523
SWIDTH 500 0
DWIDTH 6 0
BBX 6 12 0 -3
BITMAP
04
08
10
20
40
80
80
40
20
10
08
04
ENDCHAR
ENDFONT
